<?xml version="1.0" encoding="utf-8"?>
<!-- Generator: Adobe Illustrator 27.5.0, SVG Export Plug-In . SVG Version: 6.00 Build 0)  -->
<svg version="1.1" xmlns="http://www.w3.org/2000/svg" xmlns:xlink="http://www.w3.org/1999/xlink" x="0px" y="0px"
	 viewBox="0 0 750 500" style="enable-background:new 0 0 750 500;" xml:space="preserve">
<g id="BACKGROUND">
	<rect style="fill:#F9FBFC;" width="750" height="500"/>
</g>
<g id="OBJECTS">
	<g>
		<g>
			<path style="fill:#C3D3DD;" d="M677.76,199.87c-0.09,7.65-0.11,15.37-0.13,23.07c-0.02,7.69-0.03,15.34-0.12,22.82
				c-0.1,7.48-0.29,14.82-0.71,21.91c-0.41,7.09-1.07,13.95-2.1,20.5c-1.03,6.54-2.46,12.79-4.43,18.71
				c-1.97,5.91-4.53,11.53-7.81,16.81c-3.85,6.18-10.18,10.98-13.86,17.54c-1.24,2.16-2.14,4.59-2.8,7.14
				c-1.55,5.96-1.81,12.67-2.13,18.64c-0.42,7.66,0.38,17.63-0.09,27.2c-0.46,9.57-2.2,18.78-7.65,24.74
				c-5.08,5.57-12.34,9.37-20.07,12.01c-7.72,2.64-15.91,4.12-22.83,5.06c-17.83,2.41-35.55,5.14-53.52,6.95
				c-54.02,5.45-109.12,3.36-163.31,2.21c-53.17-1.13-107.12-3.35-160.28-1.38c-9.1,0.33-18.21-0.24-27.28-1.21
				c-9.08-0.98-18.13-2.35-27.11-3.61c-6.62-0.93-15.71-1.64-24.26-3.39c-8.56-1.74-16.57-4.53-21.18-9.56
				c-7.71-8.45-6.17-20.14-4.75-31.6c1.41-11.46,2.64-22.7-4.83-30.46c-6.21-6.45-14.17-9.99-21.03-15.6
				c-1.2-0.97-2.36-2.01-3.47-3.14c-4.28-4.34-6.42-10.15-7.61-16.77c-1.17-6.63-1.39-14.09-1.77-21.74
				c-0.45-7.51-0.49-15.07-0.29-22.67c0.21-7.6,0.61-15.21,1.08-22.79c0.46-7.57,0.95-15.1,1.35-22.56
				c0.4-7.46,0.69-14.84,0.74-22.11c0.08-9.71-0.27-20.01,0.3-29.61c0.57-9.53,2.12-18.31,6.04-25.15
				c3.82-6.65,8.67-11.3,13.88-14.89c5.22-3.59,10.86-6.18,16.35-8.71c5.43-2.49,9.18-5.53,11.78-9.85c2.6-4.32,4.04-9.93,4.8-17.61
				c0.47-4.87,0.2-11,0.54-16.99c0.33-5.99,1.33-11.84,4.32-16.02c3.12-4.37,8.84-7.39,15.29-9.6c6.46-2.21,13.65-3.66,19.46-4.69
				c6.85-1.23,13.92-2.11,21.08-2.78c10.73-1.02,21.63-1.46,32.48-1.84c10.85-0.39,21.66-0.66,32.22-1.31
				c7.8-0.47,15.56-0.9,23.24-1.24c7.69-0.33,15.32-0.59,22.9-0.72c7.59-0.14,15.16-0.23,22.7-0.35c7.56-0.11,15.11-0.24,22.66-0.39
				c7.03-0.12,14.07-0.25,21.15-0.39c7.08-0.14,14.2-0.28,21.38-0.42c7.69-0.15,15.46-0.28,23.29-0.41
				c7.84-0.12,15.75-0.21,23.74-0.16c8.06,0.19,16.19,0.47,24.4,0.87c8.2,0.4,16.45,0.89,24.71,1.44c8.07,0.53,16.27,0.9,24.5,1.24
				c8.22,0.34,16.46,0.61,24.54,1.04c8.09,0.43,16,0.99,23.76,1.8c7.65,0.76,15.16,1.74,22.41,3.03c10.28,1.83,20.5,8.1,25.75,17.13
				c5.48,9.41,5.89,20.95,12.32,29.98c5.6,7.87,13.17,13.16,20.96,18.1c7.78,4.97,15.85,9.68,22.45,16.52
				c6.52,6.76,10.84,15.42,13.42,25.01C676.94,179.25,677.9,189.62,677.76,199.87z"/>
		</g>
		<g>
			<path style="fill:#F0F5F7;" d="M643.58,394.21c-0.46,9.57-2.2,18.78-7.65,24.74c-5.08,5.57-12.34,9.37-20.07,12.01
				c-7.72,2.64-15.91,4.12-22.83,5.06c-17.83,2.41-35.55,5.14-53.52,6.95c-54.02,5.45-109.12,3.36-163.31,2.21
				c-53.17-1.13-107.12-3.35-160.28-1.38c-9.1,0.33-18.21-0.24-27.28-1.21c-9.08-0.98-18.13-2.35-27.11-3.61
				c-6.62-0.93-15.71-1.64-24.26-3.39c-8.56-1.74-16.57-4.53-21.18-9.56c-7.71-8.45-6.17-20.14-4.75-31.6
				c1.41-11.46,2.64-22.7-4.83-30.46c-6.21-6.45-14.17-9.99-21.03-15.6H645.8c-1.55,5.96-1.81,12.67-2.13,18.64
				C643.25,374.67,644.05,384.64,643.58,394.21z"/>
		</g>
		<g>
			<defs>
				<path id="SVGID_1_" d="M677.76,199.87c-0.09,7.65-0.11,15.37-0.13,23.07c-0.02,7.69-0.03,15.34-0.12,22.82
					c-0.1,7.48-0.29,14.82-0.71,21.91c-0.41,7.09-1.07,13.95-2.1,20.5c-1.03,6.54-2.46,12.79-4.43,18.71
					c-1.97,5.91-4.53,11.53-7.81,16.81c-3.85,6.18-10.18,10.98-13.86,17.54c-1.24,2.16-2.14,4.59-2.8,7.14
					c-1.55,5.96-1.81,12.67-2.13,18.64c-0.42,7.66,0.38,17.63-0.09,27.2c-0.46,9.57-2.2,18.78-7.65,24.74
					c-5.08,5.57-12.34,9.37-20.07,12.01c-7.72,2.64-15.91,4.12-22.83,5.06c-17.83,2.41-35.55,5.14-53.52,6.95
					c-54.02,5.45-109.12,3.36-163.31,2.21c-53.17-1.13-107.12-3.35-160.28-1.38c-9.1,0.33-18.21-0.24-27.28-1.21
					c-9.08-0.98-18.13-2.35-27.11-3.61c-6.62-0.93-15.71-1.64-24.26-3.39c-8.56-1.74-16.57-4.53-21.18-9.56
					c-7.71-8.45-6.17-20.14-4.75-31.6c1.41-11.46,2.64-22.7-4.83-30.46c-6.21-6.45-14.17-9.99-21.03-15.6
					c-1.2-0.97-2.36-2.01-3.47-3.14c-4.28-4.34-6.42-10.15-7.61-16.77c-1.17-6.63-1.39-14.09-1.77-21.74
					c-0.45-7.51-0.49-15.07-0.29-22.67c0.21-7.6,0.61-15.21,1.08-22.79c0.46-7.57,0.95-15.1,1.35-22.56
					c0.4-7.46,0.69-14.84,0.74-22.11c0.08-9.71-0.27-20.01,0.3-29.61c0.57-9.53,2.12-18.31,6.04-25.15
					c3.82-6.65,8.67-11.3,13.88-14.89c5.22-3.59,10.86-6.18,16.35-8.71c5.43-2.49,9.18-5.53,11.78-9.85
					c2.6-4.32,4.04-9.93,4.8-17.61c0.47-4.87,0.2-11,0.54-16.99c0.33-5.99,1.33-11.84,4.32-16.02c3.12-4.37,8.84-7.39,15.29-9.6
					c6.46-2.21,13.65-3.66,19.46-4.69c6.85-1.23,13.92-2.11,21.08-2.78c10.73-1.02,21.63-1.46,32.48-1.84
					c10.85-0.39,21.66-0.66,32.22-1.31c7.8-0.47,15.56-0.9,23.24-1.24c7.69-0.33,15.32-0.59,22.9-0.72
					c7.59-0.14,15.16-0.23,22.7-0.35c7.56-0.11,15.11-0.24,22.66-0.39c7.03-0.12,14.07-0.25,21.15-0.39
					c7.08-0.14,14.2-0.28,21.38-0.42c7.69-0.15,15.46-0.28,23.29-0.41c7.84-0.12,15.75-0.21,23.74-0.16
					c8.06,0.19,16.19,0.47,24.4,0.87c8.2,0.4,16.45,0.89,24.71,1.44c8.07,0.53,16.27,0.9,24.5,1.24c8.22,0.34,16.46,0.61,24.54,1.04
					c8.09,0.43,16,0.99,23.76,1.8c7.65,0.76,15.16,1.74,22.41,3.03c10.28,1.83,20.5,8.1,25.75,17.13
					c5.48,9.41,5.89,20.95,12.32,29.98c5.6,7.87,13.17,13.16,20.96,18.1c7.78,4.97,15.85,9.68,22.45,16.52
					c6.52,6.76,10.84,15.42,13.42,25.01C676.94,179.25,677.9,189.62,677.76,199.87z"/>
			</defs>
			<clipPath id="SVGID_00000150791595013079058980000008581064962899796386_">
				<use xlink:href="#SVGID_1_"  style="overflow:visible;"/>
			</clipPath>
			
				<rect x="268.793" y="336.968" style="clip-path:url(#SVGID_00000150791595013079058980000008581064962899796386_);fill:#DCE8EF;" width="401.71" height="15.572"/>
			<g style="clip-path:url(#SVGID_00000150791595013079058980000008581064962899796386_);">
				<g>
					<rect x="21.562" y="46.522" style="fill:#C3D3DD;" width="131.125" height="319.579"/>
				</g>
				<g>
					<rect x="158.786" y="46.522" style="fill:#C3D3DD;" width="131.125" height="319.579"/>
				</g>
				<g>
					<rect x="21.562" y="41.867" style="fill:#F0F5F7;" width="131.125" height="319.579"/>
				</g>
				<g>
					<rect x="158.786" y="41.867" style="fill:#F0F5F7;" width="131.125" height="319.579"/>
				</g>
				<g>
					<g>
						<g>
							<path style="fill:#C3D3DD;" d="M141.743,341.257c-3.611,0-7.223,0-10.834,0c-8.676,0-17.353,0-26.029,0
								c-10.551,0-21.103,0-31.654,0c-9.084,0-18.167,0-27.251,0c-3.007,0-6.015,0-9.022,0c-0.922,0-1.844,0-2.766,0
								c-0.447,0-1.051-0.108-1.487,0c-0.056,0.014-0.134,0-0.193,0c0.333,0.333,0.667,0.667,1,1c0-2.573,0-5.147,0-7.72
								c0-6.941,0-13.881,0-20.822c0-10.29,0-20.58,0-30.87c0-12.554,0-25.108,0-37.663c0-13.702,0-27.405,0-41.107
								c0-13.925,0-27.851,0-41.777c0-12.896,0-25.792,0-38.687c0-10.937,0-21.873,0-32.81c0-7.863,0-15.726,0-23.589
								c0-2.439,0-4.877,0-7.316c0-1.26,0.111-2.578,0-3.834c-0.014-0.16,0-0.327,0-0.487c-0.333,0.333-0.667,0.667-1,1
								c3.611,0,7.223,0,10.834,0c8.676,0,17.353,0,26.029,0c10.551,0,21.103,0,31.654,0c9.084,0,18.167,0,27.251,0
								c3.007,0,6.015,0,9.022,0c0.922,0,1.844,0,2.766,0c0.447,0,1.051,0.108,1.487,0c0.056-0.014,0.134,0,0.193,0
								c-0.333-0.333-0.667-0.667-1-1c0,2.573,0,5.147,0,7.72c0,6.941,0,13.881,0,20.822c0,10.29,0,20.58,0,30.87
								c0,12.554,0,25.108,0,37.663c0,13.702,0,27.405,0,41.107c0,13.926,0,27.851,0,41.777c0,12.896,0,25.791,0,38.687
								c0,10.937,0,21.873,0,32.81c0,7.863,0,15.726,0,23.589c0,3.714-0.068,7.436,0,11.15c0.003,0.162,0,0.325,0,0.487
								c0,1.287,2,1.289,2,0c0-2.573,0-5.147,0-7.72c0-6.941,0-13.881,0-20.822c0-10.29,0-20.58,0-30.87c0-12.554,0-25.108,0-37.663
								c0-13.702,0-27.405,0-41.107c0-13.925,0-27.851,0-41.777c0-12.896,0-25.792,0-38.687c0-10.937,0-21.873,0-32.81
								c0-7.863,0-15.726,0-23.589c0-3.714,0.068-7.436,0-11.15c-0.003-0.162,0-0.325,0-0.487c0-0.541-0.458-1-1-1
								c-3.611,0-7.223,0-10.834,0c-8.676,0-17.353,0-26.029,0c-10.551,0-21.103,0-31.654,0c-9.084,0-18.167,0-27.251,0
								c-3.007,0-6.015,0-9.022,0c-1.404,0-2.852-0.104-4.253,0c-0.064,0.005-0.129,0-0.193,0c-0.541,0-1,0.458-1,1
								c0,2.573,0,5.147,0,7.72c0,6.941,0,13.881,0,20.822c0,10.29,0,20.58,0,30.87c0,12.554,0,25.108,0,37.663
								c0,13.702,0,27.405,0,41.107c0,13.926,0,27.851,0,41.777c0,12.896,0,25.791,0,38.687c0,10.937,0,21.873,0,32.81
								c0,7.863,0,15.726,0,23.589c0,3.714-0.068,7.436,0,11.15c0.003,0.162,0,0.325,0,0.487c0,0.541,0.458,1,1,1
								c3.611,0,7.223,0,10.834,0c8.676,0,17.353,0,26.029,0c10.551,0,21.103,0,31.654,0c9.084,0,18.167,0,27.251,0
								c3.007,0,6.015,0,9.022,0c1.404,0,2.852,0.103,4.253,0c0.064-0.005,0.129,0,0.193,0
								C143.03,343.257,143.032,341.257,141.743,341.257z"/>
						</g>
					</g>
					<g>
						<g>
							<path style="fill:#C3D3DD;" d="M135.845,200.736c-3.22,0-6.439,0-9.659,0c-7.775,0-15.551,0-23.327,0
								c-9.369,0-18.737,0-28.106,0c-8.104,0-16.207,0-24.311,0c-2.694,0-5.388,0-8.082,0c-1.167,0-2.645-0.246-3.793,0
								c-0.05,0.011-0.113,0-0.165,0c0.333,0.333,0.667,0.667,1,1c0-4.592,0-9.184,0-13.776c0-10.981,0-21.963,0-32.944
								c0-13.276,0-26.552,0-39.828c0-11.476,0-22.952,0-34.427c0-3.774,0-7.549,0-11.323c0-1.196,0-2.393,0-3.589
								c0-0.579,0.098-1.258,0-1.831c-0.013-0.075,0-0.161,0-0.238c-0.333,0.333-0.667,0.667-1,1c3.22,0,6.439,0,9.659,0
								c7.776,0,15.551,0,23.327,0c9.369,0,18.737,0,28.106,0c8.104,0,16.207,0,24.311,0c2.694,0,5.388,0,8.082,0
								c1.167,0,2.645,0.246,3.793,0c0.05-0.011,0.113,0,0.165,0c-0.333-0.333-0.667-0.667-1-1c0,4.592,0,9.184,0,13.776
								c0,10.981,0,21.963,0,32.944c0,13.276,0,26.552,0,39.828c0,11.476,0,22.952,0,34.427c0,5.568-0.201,11.178,0,16.743
								c0.003,0.079,0,0.159,0,0.238c0,1.287,2,1.289,2,0c0-4.592,0-9.184,0-13.776c0-10.981,0-21.963,0-32.944
								c0-13.276,0-26.552,0-39.828c0-11.476,0-22.952,0-34.427c0-5.568,0.201-11.178,0-16.743c-0.003-0.079,0-0.159,0-0.238
								c0-0.541-0.458-1-1-1c-3.22,0-6.439,0-9.659,0c-7.775,0-15.551,0-23.327,0c-9.369,0-18.737,0-28.106,0
								c-8.104,0-16.207,0-24.311,0c-2.694,0-5.388,0-8.082,0c-1.252,0-2.543-0.091-3.793,0c-0.054,0.004-0.11,0-0.165,0
								c-0.541,0-1,0.458-1,1c0,4.592,0,9.184,0,13.776c0,10.981,0,21.963,0,32.944c0,13.276,0,26.552,0,39.828
								c0,11.476,0,22.952,0,34.427c0,5.568-0.201,11.178,0,16.743c0.003,0.079,0,0.159,0,0.238c0,0.541,0.458,1,1,1
								c3.22,0,6.439,0,9.659,0c7.776,0,15.551,0,23.327,0c9.369,0,18.737,0,28.106,0c8.104,0,16.207,0,24.311,0
								c2.694,0,5.388,0,8.082,0c1.252,0,2.543,0.091,3.793,0c0.054-0.004,0.11,0,0.165,0
								C137.132,202.736,137.134,200.736,135.845,200.736z"/>
						</g>
					</g>
					<g>
						<rect x="38.404" y="209.942" style="fill:#C3D3DD;" width="97.441" height="7.208"/>
					</g>
					<g>
						<rect x="52.148" y="71.161" style="fill:#C3D3DD;" width="69.954" height="7.208"/>
					</g>
					<g>
						<rect x="52.148" y="84.242" style="fill:#C3D3DD;" width="69.954" height="7.208"/>
					</g>
					<g>
						<rect x="52.148" y="97.321" style="fill:#C3D3DD;" width="69.954" height="7.208"/>
					</g>
					<g>
						<rect x="38.404" y="224.574" style="fill:#C3D3DD;" width="97.441" height="7.208"/>
					</g>
					<g>
						<rect x="38.404" y="239.206" style="fill:#C3D3DD;" width="97.441" height="7.208"/>
					</g>
				</g>
				<g>
					<g>
						<g>
							<path style="fill:#C3D3DD;" d="M278.966,341.257c-3.611,0-7.223,0-10.834,0c-8.676,0-17.353,0-26.029,0
								c-10.551,0-21.103,0-31.654,0c-9.084,0-18.167,0-27.251,0c-3.007,0-6.015,0-9.022,0c-0.922,0-1.844,0-2.766,0
								c-0.447,0-1.051-0.108-1.487,0c-0.056,0.014-0.134,0-0.193,0c0.333,0.333,0.667,0.667,1,1c0-2.573,0-5.147,0-7.72
								c0-6.941,0-13.881,0-20.822c0-10.29,0-20.58,0-30.87c0-12.554,0-25.108,0-37.663c0-13.702,0-27.405,0-41.107
								c0-13.925,0-27.851,0-41.777c0-12.896,0-25.792,0-38.687c0-10.937,0-21.873,0-32.81c0-7.863,0-15.726,0-23.589
								c0-2.439,0-4.877,0-7.316c0-1.26,0.111-2.578,0-3.834c-0.014-0.16,0-0.327,0-0.487c-0.333,0.333-0.667,0.667-1,1
								c3.611,0,7.223,0,10.834,0c8.676,0,17.353,0,26.029,0c10.551,0,21.103,0,31.654,0c9.084,0,18.167,0,27.251,0
								c3.007,0,6.015,0,9.022,0c0.922,0,1.844,0,2.766,0c0.447,0,1.051,0.108,1.487,0c0.056-0.014,0.134,0,0.193,0
								c-0.333-0.333-0.667-0.667-1-1c0,2.573,0,5.147,0,7.72c0,6.941,0,13.881,0,20.822c0,10.29,0,20.58,0,30.87
								c0,12.554,0,25.108,0,37.663c0,13.702,0,27.405,0,41.107c0,13.926,0,27.851,0,41.777c0,12.896,0,25.791,0,38.687
								c0,10.937,0,21.873,0,32.81c0,7.863,0,15.726,0,23.589c0,3.714-0.068,7.436,0,11.15c0.003,0.162,0,0.325,0,0.487
								c0,1.287,2,1.289,2,0c0-2.573,0-5.147,0-7.72c0-6.941,0-13.881,0-20.822c0-10.29,0-20.58,0-30.87c0-12.554,0-25.108,0-37.663
								c0-13.702,0-27.405,0-41.107c0-13.925,0-27.851,0-41.777c0-12.896,0-25.792,0-38.687c0-10.937,0-21.873,0-32.81
								c0-7.863,0-15.726,0-23.589c0-3.714,0.068-7.436,0-11.15c-0.003-0.162,0-0.325,0-0.487c0-0.541-0.458-1-1-1
								c-3.611,0-7.223,0-10.834,0c-8.676,0-17.353,0-26.029,0c-10.551,0-21.103,0-31.654,0c-9.084,0-18.167,0-27.251,0
								c-3.007,0-6.015,0-9.022,0c-1.404,0-2.852-0.104-4.253,0c-0.064,0.005-0.129,0-0.193,0c-0.541,0-1,0.458-1,1
								c0,2.573,0,5.147,0,7.72c0,6.941,0,13.881,0,20.822c0,10.29,0,20.58,0,30.87c0,12.554,0,25.108,0,37.663
								c0,13.702,0,27.405,0,41.107c0,13.926,0,27.851,0,41.777c0,12.896,0,25.791,0,38.687c0,10.937,0,21.873,0,32.81
								c0,7.863,0,15.726,0,23.589c0,3.714-0.068,7.436,0,11.15c0.003,0.162,0,0.325,0,0.487c0,0.541,0.458,1,1,1
								c3.611,0,7.223,0,10.834,0c8.676,0,17.353,0,26.029,0c10.551,0,21.103,0,31.654,0c9.084,0,18.167,0,27.251,0
								c3.007,0,6.015,0,9.022,0c1.404,0,2.852,0.103,4.253,0c0.064-0.005,0.129,0,0.193,0
								C280.253,343.257,280.255,341.257,278.966,341.257z"/>
						</g>
					</g>
					<g>
						<g>
							<path style="fill:#C3D3DD;" d="M273.069,200.736c-3.22,0-6.439,0-9.659,0c-7.775,0-15.551,0-23.327,0
								c-9.369,0-18.737,0-28.106,0c-8.104,0-16.207,0-24.311,0c-2.694,0-5.388,0-8.082,0c-1.167,0-2.645-0.246-3.793,0
								c-0.05,0.011-0.113,0-0.165,0c0.333,0.333,0.667,0.667,1,1c0-4.592,0-9.184,0-13.776c0-10.981,0-21.963,0-32.944
								c0-13.276,0-26.552,0-39.828c0-11.476,0-22.952,0-34.427c0-3.774,0-7.549,0-11.323c0-1.196,0-2.393,0-3.589
								c0-0.579,0.098-1.258,0-1.831c-0.013-0.075,0-0.161,0-0.238c-0.333,0.333-0.667,0.667-1,1c3.22,0,6.439,0,9.659,0
								c7.776,0,15.551,0,23.327,0c9.369,0,18.737,0,28.106,0c8.104,0,16.207,0,24.311,0c2.694,0,5.388,0,8.082,0
								c1.167,0,2.645,0.246,3.793,0c0.05-0.011,0.113,0,0.165,0c-0.333-0.333-0.667-0.667-1-1c0,4.592,0,9.184,0,13.776
								c0,10.981,0,21.963,0,32.944c0,13.276,0,26.552,0,39.828c0,11.476,0,22.952,0,34.427c0,5.568-0.201,11.178,0,16.743
								c0.003,0.079,0,0.159,0,0.238c0,1.287,2,1.289,2,0c0-4.592,0-9.184,0-13.776c0-10.981,0-21.963,0-32.944
								c0-13.276,0-26.552,0-39.828c0-11.476,0-22.952,0-34.427c0-5.568,0.201-11.178,0-16.743c-0.003-0.079,0-0.159,0-0.238
								c0-0.541-0.458-1-1-1c-3.22,0-6.439,0-9.659,0c-7.775,0-15.551,0-23.327,0c-9.369,0-18.737,0-28.106,0
								c-8.104,0-16.207,0-24.311,0c-2.694,0-5.388,0-8.082,0c-1.252,0-2.543-0.091-3.793,0c-0.054,0.004-0.11,0-0.165,0
								c-0.541,0-1,0.458-1,1c0,4.592,0,9.184,0,13.776c0,10.981,0,21.963,0,32.944c0,13.276,0,26.552,0,39.828
								c0,11.476,0,22.952,0,34.427c0,5.568-0.201,11.178,0,16.743c0.003,0.079,0,0.159,0,0.238c0,0.541,0.458,1,1,1
								c3.22,0,6.439,0,9.659,0c7.776,0,15.551,0,23.327,0c9.369,0,18.737,0,28.106,0c8.104,0,16.207,0,24.311,0
								c2.694,0,5.388,0,8.082,0c1.252,0,2.543,0.091,3.793,0c0.054-0.004,0.11,0,0.165,0
								C274.356,202.736,274.358,200.736,273.069,200.736z"/>
						</g>
					</g>
					<g>
						<rect x="175.627" y="209.942" style="fill:#C3D3DD;" width="97.441" height="7.208"/>
					</g>
					<g>
						<rect x="189.371" y="71.161" style="fill:#C3D3DD;" width="69.954" height="7.208"/>
					</g>
					<g>
						<rect x="189.371" y="84.242" style="fill:#C3D3DD;" width="69.954" height="7.208"/>
					</g>
					<g>
						<rect x="189.371" y="97.321" style="fill:#C3D3DD;" width="69.954" height="7.208"/>
					</g>
					<g>
						<rect x="175.627" y="224.574" style="fill:#C3D3DD;" width="97.441" height="7.208"/>
					</g>
					<g>
						<rect x="175.627" y="239.206" style="fill:#C3D3DD;" width="97.441" height="7.208"/>
					</g>
				</g>
			</g>
		</g>
	</g>
	<g>
		<path style="fill:#E7B932;" d="M349.239,154.511c0.595-0.001,1.186,0.061,1.765,0.188l-0.562,2.562
			c-1.674-0.367-3.533,0.07-5.103,1.2c-1.569,1.13-2.573,2.755-2.755,4.459l-2.608-0.279c0.261-2.444,1.657-4.743,3.83-6.308
			C345.456,155.144,347.365,154.515,349.239,154.511z"/>
		<path style="fill:#5986C3;" d="M88.667,182.346c0.595-0.001,1.186,0.061,1.765,0.188l-0.562,2.562
			c-1.674-0.367-3.533,0.07-5.103,1.2c-1.569,1.13-2.573,2.755-2.755,4.459l-2.608-0.279c0.261-2.444,1.657-4.743,3.83-6.308
			C84.884,182.979,86.793,182.349,88.667,182.346z"/>
		<path style="fill:#E7B932;" d="M204,264.94c0.443,0.397,0.841,0.839,1.186,1.32l-2.132,1.527
			c-0.999-1.393-2.673-2.312-4.595-2.523c-1.922-0.21-3.756,0.326-5.031,1.471l-1.752-1.952c1.829-1.642,4.405-2.417,7.067-2.126
			C200.765,262.879,202.605,263.689,204,264.94z"/>
		
			<rect x="333.775" y="234.045" transform="matrix(0.6232 -0.7821 0.7821 0.6232 -56.7727 352.8868)" style="fill:#5986C3;" width="8.06" height="2.623"/>
		
			<rect x="195.832" y="213.001" transform="matrix(0.6232 -0.7821 0.7821 0.6232 -92.2968 237.0701)" style="fill:#5986C3;" width="8.06" height="2.623"/>
		
			<rect x="114.242" y="131.097" transform="matrix(0.6232 -0.7821 0.7821 0.6232 -58.9858 142.3949)" style="fill:#AA2B3D;" width="8.06" height="2.623"/>
		
			<rect x="479.45" y="103.951" transform="matrix(0.6232 -0.7821 0.7821 0.6232 99.8639 417.7875)" style="fill:#AA2B3D;" width="8.06" height="2.623"/>
		<path style="fill:#AA2B3D;" d="M425.411,173.208c2.287,2.051,4.047,4.687,4.996,7.633l-2.496,0.805
			c-1.475-4.576-5.253-8.276-9.858-9.656l0.753-2.512C421.262,170.214,423.517,171.51,425.411,173.208z"/>
		<path style="fill:#AA2B3D;" d="M304.049,270.848c2.287,2.051,4.047,4.687,4.996,7.633l-2.496,0.805
			c-1.475-4.576-5.253-8.276-9.858-9.656l0.753-2.512C299.9,267.853,302.156,269.15,304.049,270.848z"/>
		
			<rect x="231.841" y="108.394" transform="matrix(0.286 -0.9582 0.9582 0.286 56.2981 306.9581)" style="fill:#78B78E;" width="4.589" height="14.612"/>
		<path style="fill:#AA2B3D;" d="M218.615,135.773l-0.218,1.293c-7.194-1.212-14.683-0.717-21.655,1.432l-0.386-1.254
			C203.522,135.036,211.219,134.528,218.615,135.773z"/>
		<path style="fill:#AA2B3D;" d="M603.853,165.845l-1.285,0.261c-1.452-7.15-4.603-13.961-9.111-19.697l1.031-0.811
			C599.122,151.494,602.36,158.496,603.853,165.845z"/>
		
			<rect x="574.42" y="85.367" transform="matrix(0.9112 -0.412 0.412 0.9112 16.4424 248.3108)" style="fill:#5986C3;" width="19.348" height="1.311"/>
		
			<rect x="489.998" y="236.757" transform="matrix(0.1984 -0.9801 0.9801 0.1984 167.8357 680.0433)" style="fill:#5986C3;" width="19.348" height="1.311"/>
		<path style="fill:#E7B932;" d="M663.592,252.98c2.264,2.03,3.968,4.684,4.783,7.638l-2.528,0.698
			c-1.248-4.523-4.989-8.205-9.533-9.381l0.657-2.539C659.439,250.035,661.709,251.291,663.592,252.98z"/>
		<path style="fill:#E7B932;" d="M384.389,72.111c2.264,2.03,3.968,4.684,4.783,7.638l-2.528,0.698
			c-1.248-4.523-4.989-8.205-9.533-9.381l0.658-2.539C380.236,69.165,382.506,70.422,384.389,72.111z"/>
		
			<rect x="107.251" y="304.96" transform="matrix(0.8143 -0.5804 0.5804 0.8143 -156.7253 121.3535)" style="fill:#AA2B3D;" width="8.088" height="1.311"/>
		
			<rect x="283.617" y="148.603" transform="matrix(0.898 -0.4401 0.4401 0.898 -38.5258 140.756)" style="fill:#E7B932;" width="1.311" height="9.71"/>
		
			<rect x="478.84" y="295.727" transform="matrix(0.9556 -0.2948 0.2948 0.9556 -65.7873 156.2967)" style="fill:#78B78E;" width="13.493" height="1.311"/>
		<path style="fill:#78B78E;" d="M272.978,216.787c1.73,1.551,2.992,3.61,3.422,5.917l-4.512,0.841
			c-0.58-3.113-3.959-5.52-7.09-5.05l-0.681-4.539C267.318,213.475,270.593,214.648,272.978,216.787z"/>
		
			<rect x="186.094" y="63.641" transform="matrix(0.9301 -0.3673 0.3673 0.9301 -10.7754 75.2464)" style="fill:#AA2B3D;" width="12.458" height="4.589"/>
		
			<rect x="476.724" y="179.64" transform="matrix(0.286 -0.9582 0.9582 0.286 162.8684 592.4781)" style="fill:#78B78E;" width="4.589" height="14.611"/>
	</g>
	<g>
		<g>
			<path style="fill:#DCE8EF;" d="M119.842,399.195c0.378-0.181,0.769-0.324,1.156-0.429c12.546-3.401,25.542-4.243,38.478-4.888
				c14.823-0.738,29.563,2.531,44.171,4.444c8.694,1.138,18.548,1.66,25.881,6.749c4.777,3.315,9.327,7.866,13.726,11.656
				c4.194,3.614,15.178,9.655,7.161,14.071c-9.438,5.199-25.115,5.641-35.542,5.223c-13.471-0.54-26.185-5.056-39.102-8.663
				c-3.724,0-8.603-2.402-12.211-3.41c-4.247-1.186-8.495-2.372-12.742-3.558c-8.067-2.252-16.253-4.025-23.593-8.207
				c-2.866-1.633-10.55-5.707-10.082-9.649C117.329,400.96,118.498,399.839,119.842,399.195z"/>
		</g>
		<path style="fill:#2C1D42;" d="M150.634,145.529c-0.761-0.302-1.559-0.493-2.412-0.488c-3.062,0.016-6.732,2.176-9.591,3.23
			c-3.015,0-7.604,2.799-10.462,3.86c-2.754,1.023-5.421,2.234-8.189,3.222c-5.628,2.009-11.914,3.495-16.035,8.161
			c-2.587,2.929-3.927,6.757-4.733,10.581c-2.437,11.562-0.914,25.041-0.178,36.772c0.62,9.893,1.686,19.758,3.196,29.554
			c1.325,8.598,2.359,18.075,6.739,25.754c8.57,15.209,32.63,9.526,44.949,3.949c4.556-2.063,7.729-5.68,10.894-9.407
			c2.364-2.784,4.916-5.466,6.772-8.636c3.296-5.631,4.804-12.346,6.433-18.594c3.105-11.908,2.797-22.341,1.594-34.434
			c-0.45-4.522,0.501-9.28-0.443-13.765c-0.774-3.678-2.873-7.196-4.206-10.705c-2.887-7.598-6.445-19.025-13.629-23.727
			c-1.823-1.194-4.004-1.508-5.871-2.53C153.885,147.464,152.352,146.212,150.634,145.529z"/>
		<g>
			<path style="fill:#C3D3DD;" d="M123.7,386.955c0.198,1.936,6.787,7.754,16.092,11.439c9.305,3.685,19.579,5.434,22.296,4.454
				c1.679-0.595,2.577-2.53,2.869-4.326c0.175-1.119,0.117-2.181-0.152-2.845c-0.688-1.714-7.37-4.653-8.139-5.527
				c-0.781-0.863-3.685-6.88-3.883-11.824c0,0-0.875-4.07-7.463-6.297c-6.588-2.227-11.055-0.968-13.771,1.936
				c-1.796,1.913-4.734,6.134-6.46,9.329C124.201,384.925,123.63,386.302,123.7,386.955z"/>
			<path style="fill:#4B1C4A;" d="M123.7,386.955c0.198,1.936,6.787,7.754,16.092,11.439c9.305,3.685,15.319,6.06,22.296,4.454
				c1.736-0.399,2.577-2.53,2.869-4.326c-4.898,2.227-12.874,0.735-19.147-1.679c-6.285-2.414-17.934-8.874-20.721-13.55
				C124.201,384.925,123.63,386.302,123.7,386.955z"/>
			<g>
				<path style="fill:#C3D3DD;" d="M238.846,403.61c-9.32,5.575-28.796,15.644-31.801,16.437c-1.732,0.466-3.059-1.277-4.17-3.822
					c-0.82-1.84-1.516-4.124-2.17-6.285c-1.56-5.13-2.883-11.837-2.883-11.837c-1.083-3.842,12.997-9.529,15.565-9.314
					c2.574,0.225,27.452,2.356,30.334,4.294c0.308,0.215,0.606,0.435,0.873,0.673C246.805,395.71,247.156,398.643,238.846,403.61z"
					/>
				<path style="fill:#4B1C4A;" d="M238.846,403.61c-9.32,5.575-28.796,15.644-31.801,16.437c-1.732,0.466-3.059-1.277-4.17-3.822
					c6.402-3.413,26.61-14.201,41.72-22.47C246.805,395.71,247.156,398.643,238.846,403.61z"/>
			</g>
			<path style="fill:#2C1D42;" d="M196.9,247.436c-2.908,13.184-7.083,62.45-18.91,85.134
				c-11.827,22.685-21.586,46.016-24.43,47.438c-2.844,1.422-10.341,0.259-13.831-1.68c-3.49-1.939-5.687-5.817-4.783-8.919
				c0.905-3.102,12.926-32.831,17.838-47.825c4.912-14.994,5.092-60.814,13.752-66.113C175.196,250.171,196.9,247.436,196.9,247.436
				z"/>
			<path style="fill:#4B1C4A;" d="M133.187,257.797c-2.456,4.136-8.801,16.743,8.372,51.732
				c7.65,15.587,26.089,44.627,31.648,55.485c5.558,10.858,22.491,33.219,24.817,33.348c2.327,0.129,16.674-9.048,18.096-9.436
				c1.422-0.388-8.531-22.879-14.865-38.906c-6.334-16.028-28.515-86.795-34.72-94.55
				C160.332,247.715,133.187,257.797,133.187,257.797z"/>
		</g>
		<path style="fill:#78B78E;" d="M171.021,151.325c0.963-0.295,1.897-0.068,2.878-0.17c1.867-0.195,3.748-0.969,5.541-1.531
			c2.915-0.914,5.803-2.008,8.611-3.195c6.422-2.715,13.026-4.917,19.353-7.896c6.666-3.138,12.668-7.865,19.142-11.417
			c5.546-3.043,10.623-6.735,16.139-9.796c2.256-1.252,3.225-1.376,5.677-1.498c1.763-0.088,2.781-0.645,4.373-1.343
			c3.009-1.32,7.401-0.519,9.833,1.982c2.676,2.754,3.854,6.884,2.299,10.333c-1.484,3.292-4.57,5.273-6.068,8.465
			c-3.252,6.928-9.757,11.633-15.937,16.072c-5.364,3.853-10.671,7.837-16.217,11.417c-6.602,4.261-13.556,7.848-20.369,11.749
			c-8.179,4.683-18.907,13.764-28.743,8.414c-6.686-3.636-7.995-10.251-8.919-17.238c-0.505-3.813-0.649-8.208,0.715-11.844
			C169.608,153.086,169.785,152.462,171.021,151.325z"/>
		<path style="fill:#78B78E;" d="M199.17,231.371c-0.385,3.883-3.883,4.653-2.519,10.472c1.353,5.819,2.321,6.985-0.198,8.722
			c-2.519,1.749-17.643,11.439-36.056,13.772c-18.424,2.321-30.062,1.936-31.799,0.187c-1.271-1.259-0.7-4.688-0.513-7.801
			c0.07-1.166,0.093-2.286-0.07-3.242c-0.583-3.498-6.017-4.268-7.37-12.99c-0.898-5.772-5.504-32.86-5.97-53.769
			c-0.233-10.74,0.618-19.847,3.65-23.601c5.819-7.207,55.063-13.958,62.234-13.76c7.171,0.198,10.471,25.397,12.792,41.874
			C195.683,207.723,199.555,227.5,199.17,231.371z"/>
		<path style="fill:#4B1C4A;" d="M165.476,156.966c5.718,8.576,19.694,13.341,28.27,39.547c0,0,0.673-1.025,0.427-5.08
			c-0.246-4.055-1.123-8.264-3.09-11.705c-1.966-3.441-8.682-24.022-20.063-28.403C159.641,146.945,165.476,156.966,165.476,156.966
			z"/>
		<path style="fill:#5B996E;" d="M182.052,230.357c-5.352,1.889-9.492,2.25-14.168,5.83c-5.725,4.385-11.136,7.976-17.748,10.985
			c-5.877,2.67-11.346,6.122-17.503,8.151c-1.283,0.42-2.845,0.933-4.548,1.4c0.07-1.166,0.093-2.286-0.07-3.242
			c-0.583-3.498-6.017-4.268-7.37-12.99c-0.898-5.772-5.504-32.86-5.97-53.769c3.58-5.305,9.865-8.302,14.623-2.577
			c2.355,2.834,2.927,6.857,3.603,10.343c1.248,6.46,2.437,13.095,4.314,19.474c4,1.644,9.422,0,13.445-0.933
			c5.469-1.259,11.836-1.644,17.526-1.632c8.711,0.012,17.468,1.388,18.552,10.845C187.218,226.509,186.704,228.713,182.052,230.357
			z"/>
		<path style="fill:#78B78E;" d="M109.207,167.39c5.249-6.512,18.225-10.47,22.297-7.755c4.072,2.714-3.684,59.135-3.684,59.135
			s14.735-2.521,18.419-3.102c3.684-0.582,6.592,0.775,6.592,0.775s5.805-1.822,7.788-1.712c1.984,0.11,3.416,1.763,4.629,5.951
			c1.212,4.188,2.314,8.816,0.771,11.131c-1.543,2.314-4.739,1.543-6.392,3.306c-1.653,1.763-0.331,3.967-4.959,6.392
			c-4.629,2.425-25.458,6.833-38.132,7.494c-12.674,0.661-17.964-2.865-18.074-17.964
			C98.353,215.944,100.995,177.577,109.207,167.39z"/>
		<path style="fill:#DB8E8F;" d="M161.628,227.538c-1.269-2.206-1.86-5.624-1.856-8.152c0.002-0.937,0.239-2.128,0.586-2.977
			c0.425-1.04,1.218-0.976,2.245-1.391c1.259-0.508,1.04-1.658,1.318-2.96c0.317-1.489,0.927-3.046,2.062-4.096
			c1.152-1.066,2.597-1.672,3.456-3.05c1.212-1.946,2.107-4.398,3.538-6.178c0.944-1.173,2.192-0.976,2.956,0.351
			c0.472,0.819,0.549,2.229,0.511,3.187c-0.103,2.534-0.626,4.656-1.589,6.914c-0.929,2.177,4.018,0.025,4.835-0.192
			c0.61-0.162,1.858-0.592,2.49-0.348c1.838,0.71,1.145,3.913,1.924,5.326c0.48,0.871,1.047,1.566,1.247,2.553
			c0.32,1.577-0.277,2.001-0.788,3.351c-0.808,2.137,1.269,5.593-0.511,7.251c-1.934,1.801-4.738,1.939-7.207,2.365
			c-1.185,0.205-2.303,0.657-3.466,0.875c-1.515,0.284-3.214,0.089-4.728-0.093c-1.72-0.207-5.511-0.485-6.606-1.878
			C161.768,228.042,161.647,227.645,161.628,227.538z"/>
		<g>
			<path style="fill:#18203D;" d="M128.856,85.291c2.024-2.82,4.521-5.282,7.456-7.173c3.975-2.561,9.299-4.483,13.884-5.666
				c5.326-1.374,10.837-1.036,15.366,2.339c13.697-2.116,33.339,8.28,28.551,23.982c-5.928,19.442-27.755,17.587-27.755,17.587
				v29.003l-18.146,0.006c-2.177,0.001-5.627-0.32-7.399-1.763c-1.796-1.462-2.934-3.792-4.567-5.487
				c-2.103-2.182-4.563-4.435-6.062-7.058c-1.656-2.899-3.097-5.933-4.279-9.056c-2.385-6.305-3.686-13.081-3.146-19.832
				C123.236,96.205,125.329,90.204,128.856,85.291z"/>
			<g>
				<path style="fill:#D16E75;" d="M169.861,148.624c-1.528,5.839-2.213,11.655-2.512,16.167c-0.355,5.366-5.185,9.257-10.512,8.522
					c-1.776-0.245-3.665-0.648-5.569-1.283c-8.084-2.695-9.432-11.26-9.432-11.26l1.499-23.232L169.861,148.624z"/>
				<path style="opacity:0.3;fill:#18203D;" d="M142.839,145.214l0.495-7.676l26.526,11.086c-1.294,4.943-1.979,9.862-2.342,13.995
					C152.36,159.141,145.727,151.448,142.839,145.214z"/>
			</g>
			<g>
				<path style="fill:#DB8E8F;" d="M173.095,91.997c17.246,12.396,13.204,32.165,13.204,32.165s7.815,28.449-17.246,28.996
					c-25.061,0.548-30.989-23.529-30.989-23.529l-2.695-30.856L173.095,91.997z"/>
				<path style="fill:#18203D;" d="M173.095,91.997c-6.198,19.671-26.678,13.915-26.678,13.915s4.229,18.114-7.586,26.082
					c-3.826-0.375-7.998-1.434-10.296-4.697c-1.748-2.482-2.883-5.539-3.379-8.518c-0.686-4.117-1.018-8.195-0.824-12.432
					c0.149-3.246,1.161-6.45,1.834-9.567c0.906-4.198,0.396-8.478,2.746-12.346c3.47-5.71,9.826-8.943,16.217-10.624
					c6.79-1.785,14.049-0.923,20.266,2.323c3.046,1.59,4.514,3.129,5.761,6.314C172.345,85.484,172.887,88.754,173.095,91.997z"/>
				<path style="fill:#DB8E8F;" d="M146.723,129.701c0,0-4.042-17.652-11.048-11.557c-7.006,6.094-3.544,15.429,6.198,19.894"/>
				<g>
					<g>
						<g>
							<path style="fill:#BA6569;" d="M176.832,139.41c-3.348,1.451-7.404,1.444-10.568-0.473l-0.111,0.162
								c0.241,2.995,2.557,4.716,5.198,4.87c2.656,0.054,4.974-1.474,5.558-4.378L176.832,139.41z"/>
						</g>
						<path style="fill:#EDBCBF;" d="M173.487,131.779c0.204,0.786,0.689,1.34,1.084,1.238c0.395-0.102,0.549-0.823,0.345-1.609
							c-0.204-0.786-0.69-1.34-1.084-1.238C173.438,130.273,173.283,130.993,173.487,131.779z"/>
						<path style="fill:#18203D;" d="M176.644,125.153c0.256,2.139,1.619,3.734,3.044,3.564c1.425-0.171,2.372-2.043,2.116-4.182
							c-0.256-2.139-1.619-3.734-3.044-3.564C177.335,121.142,176.388,123.014,176.644,125.153z"/>
						<path style="fill:#18203D;" d="M157.256,125.272c0.279,2.328,1.882,4.05,3.581,3.847c1.698-0.204,2.849-2.256,2.57-4.584
							c-0.279-2.328-1.882-4.05-3.581-3.846C158.127,120.892,156.977,122.944,157.256,125.272z"/>
						<path style="fill:#BA6569;" d="M175.223,134.22h-6.665c0,0,1.993,1.891,3.91,1.814
							C174.383,135.958,175.223,134.22,175.223,134.22z"/>
						<path style="fill:#BA6569;" d="M174.302,145.37h-4.824c0,0,1.443,1.369,2.83,1.313
							C173.695,146.627,174.302,145.37,174.302,145.37z"/>
						<path style="fill:#18203D;" d="M164.471,117.823h-9.773c0,0,2.923-2.773,5.733-2.66
							C163.24,115.275,164.471,117.823,164.471,117.823z"/>
						<path style="fill:#18203D;" d="M183.17,117.823h-9.773c0,0,2.923-2.773,5.732-2.66
							C181.94,115.275,183.17,117.823,183.17,117.823z"/>
						<path style="fill:#DCE8EF;" d="M176.832,139.41l0.077,0.18c-0.136,0.677-0.374,1.271-0.681,1.796
							c-2.521,0.32-6.273,0.359-9.311,0.068c-0.408-0.667-0.69-1.444-0.764-2.355l0.111-0.162
							C169.427,140.854,173.484,140.86,176.832,139.41z"/>
					</g>
				</g>
				<g>
					<g>
						<path style="fill:#BA6569;" d="M141.836,126.069c0,0-0.952-4.523-3.788-4.216c-2.836,0.307-3.526,7.282-0.69,9.199
							c2.836,1.916,5.059,0.542,5.059,0.542s-2.146-0.696-2.376-2.459S141.836,126.069,141.836,126.069z"/>
					</g>
				</g>
			</g>
		</g>
		<g>
			<path style="fill:#DB8E8F;" d="M259.6,123.592c-0.105-0.058-0.211-0.121-0.318-0.188c-1.504-0.952-1.966-2.276-2.513-3.833
				c-0.374-1.066-0.562-2.418-0.463-3.56c0.329-3.762,2.673-7.343,4.521-10.526c2.457-4.231,4.454-8.762,6.367-13.283
				c0.406-0.959,2.468-8.339,4.671-6.503c0.937,0.781,0.641,3.044,0.447,4.079c-0.377,2.007-0.084,4.051-0.937,5.991
				c0.99-1.253,1.651-3.115,2.336-4.569c0.661-1.402,1.289-3.016,2.165-4.292c0.5-0.729,1.453-2.16,2.396-2.26
				c2.169-0.229,1.827,3.676,1.359,4.889c0.356-0.768,0.914-2.228,1.99-2.105c0.98,0.112,0.993,1.1,0.894,1.869
				c-0.13,1.008-0.391,2.254-0.723,3.197c-0.706,2.008-1.563,4.035-2.38,6.005c-0.34,0.82-1.117,1.686-1.29,2.543
				c0.466-1.201,1.543-2.215,2.353-3.19c0.654-0.788,1.269-1.562,1.978-2.307c0.727-0.764,2.296-2.259,2.427-0.252
				c0.072,1.102-0.492,2.127-0.891,3.098c-1.952,4.756-3.867,9.554-6.067,14.199c-1.879,3.968-6.083,7.286-10.333,8.512
				c-1.051,0.303-1.388,0.7-2.13,1.46c-0.77,0.788-1.552,1.107-2.598,1.381C261.651,124.266,260.662,124.176,259.6,123.592z"/>
			<path style="fill:#DB8E8F;" d="M257.442,115.11c-0.457-1.472-1.366-2.71-1.867-4.176c-0.524-1.532-0.995-3.267-0.713-4.89
				c0.342-1.968,0.407-4.234-0.013-6.194c-0.197-0.918-0.273-1.864-0.314-2.801c-0.027-0.6-0.153-1.589,0.23-2.087
				c1.17-1.52,3.545-0.236,3.997,1.213c0.346,1.109,0.298,2.369,0.593,3.516c0.247,0.961,0.582,1.911,1.257,2.648
				c0.271,0.295,0.581,0.651,0.965,0.754c0.414,0.111,0.725-0.136,1.141-0.135c1.002,0.003,0.948,1.423,0.947,2.203
				c-0.005,2.244-0.66,4.148-1.951,5.986C260.691,112.603,259.234,114.866,257.442,115.11z"/>
		</g>
		<path style="fill:#4B1C4A;" d="M120.983,158.665c9.247,2.01,12.263,19.701,14.273,33.974c2.01,14.273-3.016,25.129-3.016,25.129
			l5.557-0.819c0,0,5.126-11.9,6.865-23.25c1.739-11.351-1.464-37.438-7.872-38.445
			C130.383,154.247,120.983,158.665,120.983,158.665z"/>
		<g>
			<g>
				<path style="fill:#D16E75;" d="M256.614,114.444c0.224,0.553,0.387,1.128,0.625,1.676c0.24,0.554,0.584,1.127,1.133,1.421
					c0.236,0.126,0.568,0.067,0.701-0.184c0.126-0.238,0.068-0.565-0.184-0.7c-0.032-0.017-0.126-0.1-0.156-0.097
					c0.03-0.003,0.09,0.075,0.006,0.003c-0.02-0.017-0.039-0.035-0.058-0.053c-0.043-0.041-0.083-0.084-0.122-0.129
					c-0.014-0.017-0.028-0.034-0.042-0.051c0.013,0.017,0.026,0.034,0.039,0.051c-0.014-0.005-0.051-0.07-0.06-0.082
					c-0.155-0.223-0.291-0.475-0.387-0.729c0.029,0.078,0.017,0.041-0.005-0.015c-0.012-0.029-0.023-0.058-0.034-0.087
					c-0.025-0.063-0.049-0.127-0.072-0.191c-0.05-0.136-0.098-0.273-0.145-0.41c-0.08-0.233-0.158-0.467-0.25-0.695
					c-0.1-0.247-0.346-0.45-0.63-0.358C256.732,113.891,256.506,114.178,256.614,114.444L256.614,114.444z"/>
			</g>
		</g>
		<g>
			<g>
				<path style="fill:#D16E75;" d="M268.292,99.316c0.574,0.642,1.542,0.875,2.319,1.178c1.077,0.42,2.132,0.851,3.166,1.369
					c0.957,0.479,1.891,0.997,2.833,1.503c0.766,0.412,1.676,0.757,2.277,1.406c0.449,0.484,1.172-0.241,0.724-0.724
					c-0.58-0.626-1.403-1.001-2.148-1.389c-0.943-0.491-1.865-1.018-2.813-1.5c-0.96-0.488-1.928-0.942-2.932-1.331
					c-0.509-0.197-1.015-0.399-1.524-0.595c-0.426-0.165-0.865-0.29-1.178-0.64C268.576,98.1,267.854,98.826,268.292,99.316
					L268.292,99.316z"/>
			</g>
		</g>
		<g>
			<g>
				<path style="fill:#D16E75;" d="M264.549,105.28c0.551,0.612,1.152,1.224,1.498,1.983c0.403,0.884,0.463,1.909,0.44,2.866
					c-0.045,1.883-0.421,3.757-0.928,5.566c-0.178,0.636,0.809,0.907,0.987,0.272c0.564-2.011,0.986-4.135,0.968-6.232
					c-0.009-0.986-0.137-2.004-0.548-2.909c-0.393-0.867-1.064-1.571-1.693-2.27C264.831,104.065,264.109,104.791,264.549,105.28
					L264.549,105.28z"/>
			</g>
		</g>
	</g>
	<g>
		<g>
			<path style="fill:#DCE8EF;" d="M503.987,417.511c6.598,0.375,13.307-1.883,19.781-2.894c8.418-1.315,16.115-2.023,24.629-1.802
				c12.197,0.316,24.626-1.35,36.756-2.502c8.942-0.849,19.011-1.256,27.916-0.879c4.428,0.188,8.087,1.388,12.33,2.29
				c2.711,0.576,7.765,1.006,10.009,2.688c3.927,2.945-1.386,5.864-4.475,7.215c-8.099,3.542-18.232,5.459-26.859,6.898
				c-11.442,1.908-22.761,4.712-34.421,4.775c-7.105,0.038-14.281,0.759-21.396,0.995c-6.669,0.221-12.958-0.296-19.614-0.626
				c-7.562-0.374-20.067-0.357-25.836-6.245C499.95,424.506,498.614,419.227,503.987,417.511z"/>
		</g>
		<path style="fill:#E7B932;" d="M540.36,191.408c-2.58,8.4-11.38,12.33-11.38,12.33s-1.76-1.01-4.57-2.69
			c-10.56-6.33-35.84-22.22-37.02-29.82c-1.49-9.62,9.21-48.36,10.57-51.88c0.21-0.55,0.47-0.98,0.76-1.34
			c1.58-1.94,4.11-1.45,4.79-2.59c0.81-1.35,1.63-5.01,3.52-5.15c1.9-0.13,12.2,2.85,13.14,5.56c0.95,2.71-1.08,6.36-1.08,6.36
			s1.9,2.03,1.22,5.69c-0.68,3.66-6.84,29.46-6.84,29.46s23.52,14.82,26.09,17.99C539.56,175.328,542.93,183.018,540.36,191.408z"/>
		<g>
			<g>
				<path style="fill:#5986C3;" d="M519.636,415.492c0.536,1.842,3.078,3.289,10.017,3.475c10.856,0.292,32.767-0.478,35.776-1.259
					c1.189-0.303,1.714-1.423,1.831-2.985c0.047-0.711,0.023-1.528-0.07-2.391c-0.187-2.006-0.7-4.338-1.189-6.542
					c-1.154-5.236-3.288-11.731-3.288-11.731c-0.944-3.883-16.062,0.804-18.196,2.25c-2.134,1.458-22.71,12.769-24.273,15.871
					c-0.163,0.338-0.315,0.676-0.431,1.014C519.542,413.988,519.426,414.77,519.636,415.492z"/>
				<path style="fill:#DA9330;" d="M519.636,415.492c0.536,1.842,3.078,3.289,10.017,3.475c10.856,0.292,32.767-0.478,35.776-1.259
					c1.189-0.303,1.714-1.423,1.831-2.985C557.475,414.909,536.649,415.306,519.636,415.492z"/>
			</g>
			<path style="fill:#F4B298;" d="M530.912,323.161c0,0,1.178,6.483,2.857,15.602c3.883,21.129,10.471,56.38,11.416,58.001
				c1.364,2.332,7.953,2.134,11.439,1.551c3.498-0.571,5.527-0.478,4.944-7.265c-0.501-5.889-1.306-26.19-1.889-37.91
				c-0.082-1.772-0.163-3.346-0.245-4.653c-0.571-9.888-9.783-27.135-9.783-27.135L530.912,323.161z"/>
			<path style="fill:#FF8578;" d="M530.912,323.161c0,0,1.178,6.483,2.857,15.602c3.65,0.49,7.265,1.19,8.897,2.169
				c3.51,2.099,6.542,9.772,17.013,12.209c-0.082-1.772-0.163-3.346-0.245-4.653c-0.571-9.888-9.783-27.135-9.783-27.135
				L530.912,323.161z"/>
			<path style="fill:#5986C3;" d="M598.825,340.315c0,0,0,0,0.012,0c1.364,1.236,3.207,1.458,5.224,0.945
				c4.524-1.166,8.757-8.839,12.022-19.777c3.277-10.949,3.37-16.29,1.294-19.392c-0.758-1.143-1.912-1.866-3.323-2.181
				c-2.414-0.571-5.609,0.035-8.956,1.668c-5.294,2.577-8.664,8.396-8.664,8.396s0.525,11.509,0,20.686
				C596.155,335.732,597.122,338.787,598.825,340.315z"/>
			<path style="fill:#DA9330;" d="M598.837,340.315c1.364,1.236,3.207,1.458,5.224,0.945c4.524-1.166,8.757-8.839,12.022-19.777
				c3.277-10.949,3.37-16.29,1.294-19.392c-0.758-1.143-1.912-1.866-3.323-2.181c2.309,2.53,3.265,7.265,2.939,9.55
				c-0.385,2.705-5.819,19.649-8.921,25.199C605.565,339.148,602.055,340.595,598.837,340.315z"/>
			<path style="fill:#F4B298;" d="M551.797,340.735c1.131,4.268,3.65,8.139,8.839,9.562c13.702,3.755,23.917-4.909,29.595-10.984
				c5.69-6.076,17.2-19.252,17.2-19.252s2.32-3.23,2.192-7.895c-0.163-6.099-6.204-8.011-10.215-5.166
				c-4,2.845-22.354,15.124-24.558,17.06c-2.192,1.948-14.728-0.898-14.728-0.898l-8.279,2.577c0,0-0.292,1.259-0.536,3.23
				C550.934,331.942,550.677,336.525,551.797,340.735z"/>
			<path style="fill:#FF8578;" d="M551.797,340.735c5.551,0.221,16.78,0.221,23.45-2.904c9.107-4.268,11.626-10.471,11.626-10.471
				l-35.566,1.609C550.934,331.942,550.677,336.525,551.797,340.735z"/>
			<path style="fill:#5986C3;" d="M589.59,328.068c-0.18,0.55-2.16,1.85-5.49,3.34c-6.03,2.69-16.47,5.98-28.63,6.48
				c-18.88,0.78-41.11-7.49-41.88-8.78c-0.78-1.3-2.33-17.07-0.78-29.48c1.55-12.4,6.46-37.48,6.46-37.48l12.54,0.87l47.18,3.27
				C582.87,279.728,590.11,326.518,589.59,328.068z"/>
			<path style="fill:#4A7AAF;" d="M589.59,328.068c-0.18,0.55-2.16,1.85-5.49,3.34c-3.58-14.33-12.62-55.4-12.62-55.4
				s-8.33,0.44-21.26,0.88c-12.93,0.44-27.39-6.36-27.39-6.36l8.98-7.51l47.18,3.27C582.87,279.728,590.11,326.518,589.59,328.068z"
				/>
		</g>
		<path style="fill:#E7B932;" d="M595.82,222.428c-0.57,4.17-1.17,8.02-1.64,11.09c-2.03,13.09-6.32,21.9-7.68,24.61
			c-1.35,2.71-4.29,1.82-5.19,5.19c-0.91,3.37,1.13,4.75,1.13,7c0,1.22-4.88,1.85-12.26,2.21c-6.27,0.3-14.34,0.4-22.74,0.5
			c-18.3,0.23-30.26-2.25-31.17-4.74c-0.9-2.48,2.71-8.13,2.49-11.29c-0.23-3.16-3.84-4.74-3.84-11.97
			c0-7.22,10.84-49.91,14.22-59.84c3.39-9.94,8.36-10.62,8.36-10.62c11.06,3.62,52.17,8.13,57.59,13.33
			C599.23,191.868,597.69,208.818,595.82,222.428z"/>
		<path style="fill:#DA9330;" d="M595.82,222.428c-0.57,4.17-1.17,8.02-1.64,11.09c-2.03,13.09-6.32,21.9-7.68,24.61
			c-1.35,2.71-4.29,1.82-5.19,5.19c-0.91,3.37,1.13,4.75,1.13,7c0,1.22-4.88,1.85-12.26,2.21l-1.01-12.33
			c0,0,11.02-5.39,12.73-15.43c1.72-10.04,6.12-24,6.12-24L595.82,222.428z"/>
		<path style="fill:#DA9330;" d="M574.85,268.854c0,0-13.902-3.991-24.534-6.429c-10.631-2.439-22.575-8.035-8.834-26.298
			s21.714-15.38,21.714-15.38l15.704,31.4L574.85,268.854z"/>
		<g>
			<path style="fill:#18203D;" d="M546.452,119.768c0,0-14.64-6.702-19.931,2.822c-5.291,9.524-2.998,24.383,9.966,26.743
				C549.45,151.693,557.211,123.648,546.452,119.768z"/>
			<g>
				<path style="fill:#18203D;" d="M582.257,115.358c0,0,12.705-14.866,29.854-1.235c13.535,10.759,8.949,34.161,13.182,46.098
					c2.57,7.247,7.416,8.857,11.261,8.174c2.745-0.487,5.102,1.983,4.256,4.64c-1.766,5.55-6.356,11.747-18.163,10.406
					c-20.637-2.345-22.753-20.675-20.107-43.056c2.646-22.381-12.992-23.968-18.314-16.384"/>
				<path style="fill:#C8404E;" d="M572.027,117.477c6.879-11.467,29.808,0.426,19.755,15.998L572.027,117.477z"/>
			</g>
			<g>
				<path style="fill:#D16E75;" d="M579.435,169.154c-0.625,1.052-3.334,17.921-4.565,21.122
					c-1.231,3.202-10.713,7.881-19.086,4.556c-8.373-3.325-8.127-4.925-8.004-7.265c0.123-2.34,2.709-9.604,2.709-9.604
					L579.435,169.154z"/>
				<path style="fill:#DB8E8F;" d="M539.397,129.469c-8.495,8.249-7.795,19.247-6.597,25.138c0.51,2.508,0.547,5.079,0.046,7.589
					c-0.664,3.327-0.284,11.564,3.587,16.941c6.35,8.819,31.361,11.89,43.002-9.982c11.641-21.871-1.587-40.92-1.587-40.92
					S548.039,121.708,539.397,129.469z"/>
				<path style="fill:#18203D;" d="M541.435,128.082c3.782,18.672,30.592,20.083,30.592,20.083l8.193,19.434
					c0,0,9.269,3.368,14.737-12.531c5.468-15.899-3.528-33.713-17.109-37.946S537.123,106.588,541.435,128.082z"/>
				<path style="fill:#DB8E8F;" d="M582.962,154.162c5.821,1.587,5.468,15.169-5.82,16.227l-1.411-10.054
					C575.731,160.335,577.142,152.575,582.962,154.162z"/>
				<g>
					<g>
						<g>
							<path style="fill:#BA6569;" d="M541.344,171.326c3.287,1.424,7.27,1.418,10.376-0.465l0.109,0.159
								c-0.237,2.94-2.51,4.63-5.104,4.781c-2.608,0.053-4.884-1.448-5.457-4.299L541.344,171.326z"/>
						</g>
						<path style="fill:#EDBCBF;" d="M544.628,163.835c-0.2,0.772-0.677,1.316-1.064,1.215c-0.388-0.1-0.539-0.808-0.339-1.58
							c0.2-0.772,0.677-1.316,1.064-1.215C544.676,162.356,544.828,163.063,544.628,163.835z"/>
						<path style="fill:#18203D;" d="M541.528,157.329c-0.252,2.1-1.59,3.666-2.989,3.499c-1.399-0.168-2.329-2.006-2.078-4.106
							c0.252-2.1,1.59-3.667,2.989-3.499C540.849,153.391,541.78,155.229,541.528,157.329z"/>
						<path style="fill:#18203D;" d="M560.564,157.446c-0.274,2.285-1.848,3.976-3.516,3.777c-1.668-0.2-2.797-2.215-2.524-4.5
							c0.274-2.286,1.848-3.977,3.516-3.777C559.708,153.145,560.838,155.16,560.564,157.446z"/>
						<path style="fill:#BA6569;" d="M542.924,166.231h6.544c0,0-1.957,1.856-3.838,1.781
							C543.748,167.937,542.924,166.231,542.924,166.231z"/>
						<path style="fill:#BA6569;" d="M543.828,177.178h4.736c0,0-1.416,1.344-2.778,1.289
							C544.424,178.413,543.828,177.178,543.828,177.178z"/>
						<path style="fill:#18203D;" d="M553.48,150.132h9.596c0,0-2.869-2.722-5.628-2.612
							C554.688,147.631,553.48,150.132,553.48,150.132z"/>
						<path style="fill:#18203D;" d="M535.121,150.132h9.595c0,0-2.869-2.722-5.628-2.612
							C536.329,147.631,535.121,150.132,535.121,150.132z"/>
						<path style="fill:#DCE8EF;" d="M541.344,171.326l-0.076,0.177c0.134,0.665,0.368,1.248,0.669,1.763
							c2.476,0.314,6.159,0.353,9.142,0.066c0.4-0.655,0.678-1.418,0.75-2.312l-0.109-0.159
							C548.614,172.744,544.631,172.75,541.344,171.326z"/>
					</g>
				</g>
				<g>
					<g>
						<path style="fill:#BA6569;" d="M577.513,160.969c0,0,0.935-4.441,3.72-4.14c2.785,0.301,3.462,7.15,0.677,9.032
							c-2.785,1.882-4.967,0.533-4.967,0.533s2.107-0.683,2.333-2.414S577.513,160.969,577.513,160.969z"/>
					</g>
				</g>
			</g>
		</g>
		<g>
			<path style="fill:#DB8E8F;" d="M509.288,117.354c0.093,0.076,0.19,0.151,0.293,0.225c1.443,1.043,2.843,0.98,4.492,0.909
				c1.129-0.049,2.454-0.376,3.477-0.893c3.371-1.703,5.825-5.21,8.093-8.109c3.015-3.853,6.48-7.391,9.967-10.846
				c0.74-0.733,6.826-5.39,4.302-6.753c-1.074-0.579-3.064,0.535-3.953,1.1c-1.723,1.095-3.729,1.583-5.214,3.096
				c0.795-1.384,2.279-2.69,3.374-3.866c1.056-1.135,2.321-2.318,3.181-3.605c0.491-0.735,1.465-2.152,1.208-3.064
				c-0.593-2.099-4.092-0.33-5.044,0.555c0.581-0.615,1.729-1.677,1.215-2.629c-0.468-0.868-1.39-0.513-2.067-0.136
				c-0.888,0.495-1.947,1.201-2.7,1.859c-1.603,1.401-3.166,2.95-4.691,4.44c-0.635,0.62-1.15,1.664-1.882,2.143
				c0.942-0.878,1.483-2.255,2.088-3.37c0.488-0.9,0.979-1.759,1.407-2.694c0.439-0.958,1.245-2.971-0.668-2.347
				c-1.049,0.342-1.792,1.248-2.545,1.978c-3.691,3.579-7.433,7.14-10.929,10.908c-2.987,3.219-4.505,8.355-4.064,12.756
				c0.109,1.089-0.135,1.549-0.564,2.52c-0.446,1.007-0.451,1.852-0.317,2.925C507.9,115.7,508.35,116.585,509.288,117.354z"/>
			<path style="fill:#DB8E8F;" d="M517.964,116.207c1.536-0.123,3.023,0.261,4.571,0.182c1.617-0.083,3.403-0.29,4.805-1.155
				c1.7-1.049,3.78-1.951,5.755-2.289c0.925-0.158,1.832-0.439,2.717-0.749c0.567-0.198,1.533-0.448,1.852-0.989
				c0.977-1.651-1.098-3.379-2.611-3.26c-1.158,0.091-2.31,0.604-3.485,0.756c-0.984,0.128-1.991,0.169-2.925-0.183
				c-0.375-0.142-0.82-0.298-1.058-0.616c-0.257-0.343-0.143-0.724-0.299-1.109c-0.375-0.929-1.673-0.352-2.397-0.06
				c-2.082,0.838-3.606,2.153-4.833,4.035C519.084,112.258,517.525,114.452,517.964,116.207z"/>
		</g>
		<g>
			<g>
				<path style="fill:#78B78E;" d="M574.038,229.668c4.088,2.449,38.48,46.888,36.375,49.573
					c-1.881,2.399-51.372-23.994-55.596-25.545S567.718,225.882,574.038,229.668z"/>
				<path style="fill:#991F36;" d="M607.994,273.495c0.173,0.864-2.262,3.814-3.034,4.18l17.558,12.308l1.71-2.181L607.994,273.495z
					"/>
				<path style="fill:#67A183;" d="M570.095,247.051c3.106-4.148,6.468-9.773,7.529-13.811c-1.712-1.925-2.982-3.21-3.586-3.572
					c-6.319-3.786-23.444,22.477-19.221,24.028c0.661,0.243,2.43,1.094,4.951,2.347
					C562.454,254.431,567.038,251.133,570.095,247.051z"/>
				<path style="fill:#78B78E;" d="M566.929,210.451c0,0,8.149,14.3,8.604,18.058c0.455,3.758-3.909,11.398-7.845,16.655
					c-3.936,5.257-10.418,9.226-12.097,9.948c-1.679,0.723-20.037-4.641-20.037-4.641L566.929,210.451z"/>
				<path style="fill:#67A183;" d="M558.312,236.005c-8.664,11.051-18.854,17.528-22.759,14.466
					c-3.905-3.062-0.048-14.502,8.617-25.553c8.664-11.051,18.854-17.528,22.759-14.466
					C570.834,213.513,566.976,224.954,558.312,236.005z"/>
				<path style="fill:#478D7B;" d="M551.391,230.579c-5.737,7.318-9.364,14.803-10.028,19.917
					c4.807-1.865,11.211-7.173,16.948-14.491c5.737-7.318,9.364-14.803,10.028-19.917
					C563.532,217.953,557.128,223.261,551.391,230.579z"/>
				<path style="fill:#78B78E;" d="M558.312,236.005l-0.905-0.709c-4.261,5.439-8.907,9.745-12.876,12.264
					c-1.98,1.261-3.792,2.068-5.232,2.372c-0.72,0.154-1.341,0.183-1.841,0.111c-0.503-0.073-0.881-0.232-1.195-0.477
					c-0.313-0.247-0.558-0.576-0.748-1.047c-0.334-0.818-0.441-2.082-0.218-3.662c0.327-2.37,1.364-5.411,3.029-8.731
					c1.664-3.322,3.95-6.931,6.749-10.5c4.261-5.439,8.907-9.745,12.876-12.264c1.98-1.261,3.792-2.068,5.232-2.372
					c0.72-0.154,1.341-0.182,1.841-0.111c0.503,0.073,0.881,0.232,1.195,0.477c0.312,0.247,0.558,0.575,0.748,1.046
					c0.334,0.818,0.441,2.082,0.218,3.662c-0.327,2.369-1.364,5.411-3.029,8.731c-1.664,3.322-3.95,6.931-6.749,10.5
					L558.312,236.005l0.905,0.709c4.399-5.615,7.587-11.321,9.206-16.115c0.807-2.401,1.23-4.573,1.174-6.454
					c-0.03-0.94-0.181-1.812-0.495-2.598c-0.312-0.784-0.8-1.482-1.464-2.001c-0.662-0.521-1.457-0.828-2.293-0.944
					c-1.469-0.201-3.066,0.124-4.78,0.803c-2.569,1.027-5.43,2.889-8.395,5.411c-2.962,2.523-6.017,5.709-8.905,9.391
					c-4.399,5.615-7.587,11.321-9.207,16.115c-0.807,2.401-1.229,4.573-1.174,6.454c0.03,0.94,0.181,1.812,0.495,2.598
					c0.312,0.784,0.8,1.482,1.464,2.001c0.662,0.521,1.457,0.828,2.293,0.944c1.469,0.201,3.066-0.124,4.78-0.803
					c2.57-1.027,5.431-2.889,8.396-5.411c2.962-2.523,6.017-5.708,8.905-9.391L558.312,236.005z"/>
				<g>
					<path style="fill:#E7B932;" d="M542.208,252.212c-0.108,0.023-0.197,0.024-0.3,0.042c1.279,0.347,2.647,0.711,4.012,1.061
						c2.278-1.081,4.75-2.759,7.301-4.929c2.962-2.523,6.017-5.708,8.905-9.391c4.399-5.615,7.587-11.321,9.207-16.115
						c0.325-0.967,0.569-1.886,0.763-2.775c-0.627-1.254-1.278-2.51-1.9-3.684c0.025,0.572-0.001,1.211-0.102,1.924
						c-0.327,2.37-1.364,5.411-3.029,8.731c-1.664,3.322-3.95,6.931-6.749,10.5c-4.261,5.439-8.907,9.745-12.876,12.264
						C545.46,251.101,543.648,251.908,542.208,252.212z"/>
					<path style="fill:#E7B932;" d="M550.955,254.523c1.368,0.297,2.547,0.515,3.392,0.607c1.234-0.832,2.5-1.795,3.788-2.891
						c2.962-2.523,6.017-5.708,8.905-9.391c3.83-4.889,6.74-9.845,8.498-14.209c-0.004-0.042,0-0.089-0.005-0.13
						c-0.095-0.785-0.529-2.033-1.151-3.512c-0.529,1.795-1.335,3.805-2.402,5.932c-1.664,3.322-3.95,6.931-6.749,10.5
						c-4.261,5.439-8.907,9.745-12.876,12.264C551.877,253.997,551.41,254.272,550.955,254.523z"/>
				</g>
				<g>
					<path style="fill:#EAC24C;" d="M600.609,269.166c-0.848,1.076-0.6,2.747,0.595,3.768c1.189,1.017,2.945,0.915,3.874-0.265
						c0.924-1.184,0.604-2.913-0.667-3.826C603.134,267.928,601.452,268.086,600.609,269.166z"/>
					<path style="fill:#EAC24C;" d="M589.855,250.846c0.714,0.447,1.541,0.538,2.271,0.329c-1.089-1.424-2.179-2.833-3.253-4.21
						c-0.064,0.084-0.132,0.163-0.184,0.256C588.033,248.403,588.524,250.013,589.855,250.846z"/>
					<path style="fill:#EAC24C;" d="M571.596,260.144c1.114-1.035,1.054-2.8-0.07-3.89c-1.126-1.094-2.807-1.187-3.798-0.268
						c-0.985,0.923-1.01,2.594-0.011,3.804c0.214,0.259,0.468,0.461,0.739,0.625c0.116,0.058,0.232,0.117,0.348,0.176
						C569.734,260.985,570.823,260.867,571.596,260.144z"/>
					<path style="fill:#EAC24C;" d="M591.884,262.325c-0.848,1.076-0.6,2.747,0.595,3.768c1.189,1.017,2.945,0.915,3.874-0.265
						c0.923-1.184,0.604-2.913-0.667-3.826C594.408,261.087,592.726,261.245,591.884,262.325z"/>
					<path style="fill:#EAC24C;" d="M579.963,240.381c-0.656,1.181-0.165,2.791,1.166,3.624c1.327,0.831,3.056,0.468,3.795-0.861
						c0.148-0.264,0.229-0.543,0.274-0.825c-0.879-1.097-1.733-2.152-2.554-3.153C581.537,239.025,580.47,239.479,579.963,240.381z"
						/>
					<path style="fill:#EAC24C;" d="M580.252,263.094c-1.126-1.094-2.807-1.187-3.798-0.268c-0.364,0.341-0.595,0.784-0.693,1.268
						c1.619,0.813,3.268,1.638,4.927,2.464C581.403,265.513,581.233,264.047,580.252,263.094z"/>
					<path style="fill:#EAC24C;" d="M583.158,255.484c-0.848,1.076-0.6,2.747,0.595,3.768c1.189,1.017,2.945,0.915,3.874-0.265
						c0.924-1.184,0.604-2.914-0.667-3.826C585.683,254.246,584.001,254.404,583.158,255.484z"/>
					<path style="fill:#EAC24C;" d="M588.978,269.935c-0.856-0.831-2.029-1.081-2.979-0.752c1.231,0.604,2.453,1.199,3.655,1.781
						C589.508,270.59,589.288,270.236,588.978,269.935z"/>
					<path style="fill:#EAC24C;" d="M578.234,248.321c-1.277-0.916-2.959-0.758-3.802,0.322c-0.848,1.076-0.6,2.747,0.595,3.768
						c1.189,1.017,2.945,0.915,3.874-0.265C579.824,250.962,579.505,249.233,578.234,248.321z"/>
				</g>
			</g>
		</g>
		<g>
			<path style="fill:#DB8E8F;" d="M589.729,263.242c-7.056,0.713-7.194-5.901-4.92-5.169c2.455,0.789,8.065-2.787,13.169-2.262
				c0.776,0.046,1.529,0.227,2.258,0.501l5.456-7.372l10.553,8.793l-6.602,8.216c0.784,1.367-7.007,13.205-10.115,13.685
				c-3.109,0.48-3.921-0.573-3.921-0.573c-4.355,1.324-4.438-1.86-4.438-1.86c-4.104,0.415-4.792-3.571-4.792-3.571
				s-5.101-1.447-4.809-3.993c0.215-1.873,5.511-4.622,8.298-5.945C590.11,263.577,589.998,263.215,589.729,263.242z"/>
			<path style="fill:#E7B932;" d="M587.205,184.999c10.781,2.123,44.919,13.557,54.883,18.458c9.964,4.9,8.331,17.314,4.247,24.338
				c-4.083,7.024-19.764,29.402-21.888,30.545c-2.123,1.143-6.697,0.817-6.697,0.817s-2.613,3.757-4.084,4.574
				s-14.701-7.677-15.354-9.147c-0.653-1.47,3.405-6.325,3.43-6.37c0.025-0.046,0-5.39,1.143-8.657
				c1.143-3.267,9.637-17.151,9.637-17.151s-18.784,3.92-26.788-5.227C577.731,208.03,587.205,184.999,587.205,184.999z"/>
		</g>
		<path style="fill:#DA9330;" d="M527.84,188.328c0,0-1.49,6.48-3.16,12.63l-0.27,0.09c-10.56-6.33-35.84-22.22-37.02-29.82
			c-1.49-9.62,9.21-48.36,10.57-51.88c0.21-0.55,0.47-0.98,0.76-1.34c-1.68,10.54-10.45,41.55-3.63,49.2
			C499.849,172.546,527.84,188.328,527.84,188.328z"/>
		<g>
			<g>
				<path style="fill:#D16E75;" d="M526.045,106.811c-3.917,0.136-7.951-0.578-11.624,1.175c-0.594,0.284-0.076,1.167,0.517,0.884
					c3.467-1.655,7.41-0.907,11.107-1.035C526.703,107.812,526.706,106.788,526.045,106.811L526.045,106.811z"/>
			</g>
		</g>
		<g>
			<g>
				<path style="fill:#D16E75;" d="M529.934,100.251c-3.536-2.085-6.737-4.684-10.26-6.788c-0.567-0.339-1.083,0.546-0.517,0.884
					c3.524,2.104,6.724,4.703,10.26,6.788C529.987,101.471,530.502,100.586,529.934,100.251L529.934,100.251z"/>
			</g>
		</g>
		<g>
			<g>
				<path style="fill:#D16E75;" d="M518.469,115.809c-0.074-0.004-0.148-0.009-0.221-0.018c0.069,0.008-0.119-0.019-0.139-0.023
					c-0.128-0.023-0.256-0.052-0.383-0.084c-0.275-0.069-0.545-0.153-0.817-0.232c-0.569-0.165-1.158-0.302-1.755-0.275
					c-0.267,0.012-0.525,0.227-0.512,0.512c0.012,0.267,0.225,0.525,0.512,0.512c0.555-0.025,1.028,0.104,1.592,0.27
					c0.566,0.166,1.13,0.329,1.723,0.361c0.268,0.015,0.524-0.246,0.512-0.512C518.968,116.031,518.755,115.824,518.469,115.809
					L518.469,115.809z"/>
			</g>
		</g>
	</g>
	<g>
		<g>
			<path style="fill:#DCE8EF;" d="M305.401,422.887c16.186-0.631,32.49-2.739,48.718-2.015c6.429,0.287,12.361-0.1,18.85-0.353
				c6.758-0.264,13.161,1.037,19.825,1.024c12.003-0.023,23.261,2.239,35.13,3.402c11.6,1.137,23.185,3.252,34.361,6.668
				c2.561,0.783,7.641,2.085,6.476,5.614c-1.325,4.012-10.611,4.579-13.786,5.473c-14.247,4.015-29.46,2.752-44.16,2.701
				c-8.185-0.029-16.318-1.4-24.494-1.68c-10.889-0.373-21.308-3.129-32.067-3.854c-16.937-1.142-33.981-2.031-50.635-4.79
				c-3.855-0.639-12.075,0.599-14.011-3.47c-1.065-2.24,0.153-4.348,2.098-5.62C294.6,424.093,300.203,423.11,305.401,422.887z"/>
		</g>
		<g>
			<path style="fill:#18203D;" d="M400.828,427.558c0.801,2.398,2.41,4.128,4.19,5.965c2.889,2.979,6.283,6.72,10.529,7.54
				c4.385,0.845,8.669,0.295,13.07-0.326c3.542-0.507,9.385-1.669,10.621-5.431c0.324-0.948,0.334-2.067-0.044-3.374
				c-1.029-3.545-3.541-6.608-5.54-9.63c-1.293-1.944-2.527-3.918-3.857-5.847c-1.845-2.689-4.132-8.342-7.247-9.699
				c-0.694-2.458-9.417-1.569-12.684-1.31c-2.822,0.231-7.738-0.715-8.612,2.381c-0.716,2.511-0.464,5.716-0.574,8.334
				c-0.085,2.217-0.437,4.633-0.436,6.98C400.233,424.682,400.368,426.172,400.828,427.558z"/>
			<path style="fill:#AA2B3D;" d="M400.828,427.558c0.801,2.398,2.41,4.128,4.19,5.965c2.889,2.979,6.283,6.72,10.529,7.54
				c4.385,0.845,8.669,0.295,13.07-0.326c3.542-0.507,9.385-1.669,10.621-5.431c-1.07,0.246-2.104,0.625-2.758,0.808
				c-5.016,1.373-10.11,2.293-15.339,2.146c-9.56-0.264-15.576-8.163-20.899-15.119
				C400.233,424.682,400.368,426.172,400.828,427.558z"/>
		</g>
		<path style="fill:#18203D;" d="M302.729,423.203c0,0.062,0,0.111,0.012,0.173c0.062,0.359,0.185,0.717,0.408,1.051
			c0.989,1.595,3.87,2.782,10.288,2.956c11.513,0.309,38.952-0.866,42.143-1.694c1.076-0.272,1.632-1.162,1.842-2.436
			c0.062-0.322,0.099-0.68,0.111-1.051c0-0.148,0.012-0.309,0.012-0.47c0-0.544-0.037-1.126-0.099-1.744
			c-0.198-2.127-1.088-4.551-1.261-6.937c-0.433-5.812,0.655-11.302,0.655-11.302c-1.002-4.118-21.108-3.19-23.371-1.657
			c-2.263,1.546-28.355,16.805-30.012,20.094c-0.173,0.358-0.334,0.717-0.457,1.076
			C302.778,421.917,302.655,422.573,302.729,423.203z"/>
		<path style="fill:#AA2B3D;" d="M303.149,424.427c0.989,1.595,3.87,2.782,10.288,2.956c11.513,0.309,38.952-0.866,42.143-1.694
			c1.076-0.272,1.632-1.162,1.842-2.436C343.585,423.599,322.835,424.081,303.149,424.427z"/>
		<path style="fill:#AA2B3D;" d="M415.87,285.664l-34.289-3.469c-1.287-3.767-3.488-7.207-7.082-9.605
			c-10.522-7.021-22.734,2.592-22.734,2.592s-11.879,49.298-14.541,69.671c-2.662,20.373-10.668,53.687-10.339,56.554
			c0.329,2.867,31.7,5.928,31.914,4.842c0.203-1.029,19.748-86.895,23.017-101.89c0.329,0.06,0.658,0.118,0.986,0.177
			l12.889,105.363c0,0,7.088,3.931,16.626,3.615c9.539-0.317,14.678-4.282,15.197-7.609
			C428.032,402.575,415.87,285.664,415.87,285.664z"/>
		<path style="fill:#991F36;" d="M381.58,282.194c-0.781-2.288-1.907-4.451-3.47-6.337c-2.37,1.18-4.701,2.813-6.861,4.276
			c-1.776,1.204-6.255,3.476-6.27,6.158c-0.007,1.317,0.791,1.683,2,1.982c9.479,9.859,24.3,9.399,36.88,11.151
			c2.283,0.318,4.543,0.785,6.894,0.826c0.277,5.702,1.804,10.913,2.673,16.571c1.242,8.081,1.412,16.269,2.185,24.374
			c1.76,18.456-0.442,37.404,2.186,55.794c0.729,5.102,1.643,10.186,2.204,15.276c4.628-1.5,7.156-4.08,7.512-6.361
			c0.519-3.327-11.644-120.239-11.644-120.239L381.58,282.194z"/>
		<path style="fill:#AD5B2F;" d="M336.969,114.414c-1.386,0.273-7.118,1.761-8.565,0.971c-1.446-0.79-4.215-2.467-4.215-2.467
			l2.692-7.244c0,0-1.008-3.918,0.239-7.23s9.143-23.512,11.117-23.243c1.974,0.269-1.224,11.645-1.224,11.645
			s6.802-13.568,7.878-13.695c1.076-0.127,2.168,1.359,1.381,2.456c0,0,2.278-2.887,3.949-1.491c1.67,1.396-2.6,10.52-2.6,10.52
			s3.664-6.87,6.313-5.131c2.649,1.739-8.39,21.568-8.39,21.568s9.943-3.398,11.57-1.451c1.626,1.947-6.513,6.769-9.411,7.918
			c-2.898,1.149-5.447,5.345-9.377,4.041L336.969,114.414z"/>
		<path style="fill:#AD5B2F;" d="M438.607,299.199c-6.915,2.959-9.151-3.69-6.618-3.671c2.734,0.021,7.278-5.377,12.609-6.465
			c0.799-0.199,1.619-0.255,2.444-0.209l3.184-9.19l13.467,5.552l-4.076,10.408c1.227,1.135-2.903,15.585-5.896,17.056
			c-2.994,1.472-4.149,0.663-4.149,0.663c-3.988,2.721-5.08-0.475-5.08-0.475c-4.021,1.721-5.982-2.094-5.982-2.094
			s-5.621,0.154-6.133-2.516c-0.377-1.964,4.112-6.424,6.512-8.647C439.099,299.418,438.87,299.087,438.607,299.199z"/>
		<g>
			<path style="fill:#5986C3;" d="M477.05,261.408c-0.59,4.98-6.66,17.39-8.37,21.35c-1.71,3.96-3.35,2.61-4.49,4.87
				c-1.14,2.27,0.93,4.44-1.86,5.25c-2.8,0.82-10.04-0.73-12.82-1.71c-2.78-0.98-4.64-2.99-4.18-5.21c0.46-2.23,1.42-1.51,1.22-4.05
				c-0.2-2.53-1.68-0.05-1.92-5.08c-0.23-5.02,6.12-17.66,4.32-24.73c-1.81-7.08-12.78-14.12-17.27-19.84
				c-0.01,0.21-0.03,0.43-0.05,0.66c-0.37,5.83-1.3,18.7-2.07,22.5c-1.7,8.27-2.11,16.83-4.19,21.89c-2.08,5.06-3.79,2.82-5.53,6.15
				c-1.73,3.34,2.54,1.53-1.04,5.85c-1.18,1.43-3.78,2.44-7,3.15c-6.49,1.42-15.53,1.59-20.69,1.44
				c-13.51-0.39-28.6-4.2-39.45-12.37c-4.22-3.18-1.37-6.1-3.64-9.89c-1.38-2.31-2.2-3.57-1.68-6.42c2.63-14.3,5.1-28.74,6.78-43.18
				c1.13-9.64,1.36-13.18,1.7-21.55c-10.01-5.73-21.71-12.41-31.17-18.4c-7.65-4.84-9.13-12.3-10.39-19.98
				c-1.89-11.45,2.63-33.59,4.75-40.99c0.66-2.29,2.04-3.82,3.19-5.82c0.03-0.05,0.07-0.11,0.1-0.17c0.8-1.43,0.59-2.83,0.92-4.37
				c3.36-1.79,13.58-1.56,15.98,1.13c2.41,2.7-0.2,4.54,1.79,8.09c1.99,3.55,3.06,5.31,2.35,11.82c-0.71,6.51-2.04,19.45,1.11,26.98
				c16.02,6.58,36.26,12.15,52.23,16.64c13.04,3.67,31.94,6.07,41.42,11.12c17.69,9.43,29.26,32.65,36.55,45.98
				C480.94,245.838,478.56,248.588,477.05,261.408z"/>
		</g>
		<g>
			<g>
				<path style="fill:#AD5B2F;" d="M413.227,165.983c-0.208,6.139,0.636,12,1.471,16.141c0.79,3.917-1.043,7.91-4.543,9.838
					c-3.052,1.68-6.929,3.386-10.806,3.927c-8.405,1.173-11.532-6.646-11.532-6.646v-16.418L413.227,165.983z"/>
				<path style="opacity:0.3;fill:#18203D;" d="M411.629,171.56l-1.021-4.872l-22.789,6.135v16.418
					C403.063,187.483,411.629,171.56,411.629,171.56z"/>
			</g>
			<g>
				<path style="fill:#18203D;" d="M369.233,108.958c-3.068,7.787-8.495,18.051-2.831,20.528
					c5.663,2.478,10.382-18.641,10.382-18.641L369.233,108.958z"/>
				<g>
					<path style="fill:#AD5B2F;" d="M371.79,114.881c-13.487,15.529-5.864,36.964-5.864,36.964s-2.15,15.115,9.968,23.52
						c12.118,8.405,38.505,3.714,46.324-19.155c7.818-22.869,3.909-38.505-11.727-43.587
						C394.854,107.541,371.79,114.881,371.79,114.881z"/>
					<path style="opacity:0.3;fill:#FFFFFF;" d="M378.6,175.365c-12.118-8.405-9.968-23.52-9.968-23.52s-7.623-21.435,5.864-36.964
						c0,0,11.793-3.751,24.231-4.032c-13.375-0.278-26.936,4.032-26.936,4.032c-13.487,15.529-5.864,36.964-5.864,36.964
						s-2.15,15.115,9.968,23.52c3.966,2.751,9.463,4.088,15.335,3.855C386.392,179.005,381.95,177.688,378.6,175.365z"/>
				</g>
				<path style="fill:#AA2B3D;" d="M388.11,102.629c5.749-8.409,11.239-16.715,18.145-24.319c4.125-4.542,8.298-8.91,12.32-13.536
					c2.623-3.016,5.388-5.793,8.354-8.443c1.976-1.765,5.125-4.406,7.105-1.889c6.144,7.812,4.981,18.16,4.928,27.414
					c-0.051,8.915-0.259,17.83-0.624,26.738c-0.142,3.45,0.27,7.536-0.902,10.842c-1.151,3.247-2.921,3.222-5.914,3.222
					c-4.373-1.124-7.917-4.253-11.986-6.02c-6.038-2.622-11.721-6.25-18.043-8.325C396.927,106.815,391.615,106.423,388.11,102.629z
					"/>
				<g>
					<path style="fill:#E7B932;" d="M421.82,67.67c6.093,4.456,11.84,9.462,17.135,14.874c0.001-0.229,0.006-0.459,0.007-0.688
						c0.004-0.777,0.018-1.564,0.033-2.354c-1.341-1.31-2.697-2.606-4.05-3.888c-4.656-4.411-9.761-8.566-15.165-12.179
						c-0.402,0.445-0.808,0.884-1.204,1.34c-0.113,0.131-0.23,0.257-0.343,0.387C419.44,65.975,420.639,66.806,421.82,67.67z"/>
					<path style="fill:#E7B932;" d="M436.181,121.595c-0.898-0.998-1.775-2.015-2.661-3.007c-3.015-3.375-6.332-6.534-9.616-9.645
						c-6.766-6.409-14.461-12.306-22.68-16.734c-1.407-0.758-2.788-1.604-4.174-2.45c-0.454,0.624-0.903,1.252-1.351,1.881
						c1.042,0.641,2.089,1.273,3.168,1.839c4.174,2.191,8.109,4.738,11.912,7.52c7.47,5.463,14.432,11.742,20.66,18.597
						c0.884,0.973,1.751,1.969,2.631,2.954C434.902,122.428,435.597,122.165,436.181,121.595z"/>
					<path style="fill:#E7B932;" d="M427.927,55.468c-0.354,0.293-0.692,0.588-0.999,0.862c-0.264,0.236-0.518,0.479-0.779,0.717
						c4.422,3.275,8.666,6.83,12.677,10.626c-0.114-1.161-0.276-2.311-0.499-3.444C435.058,61.152,431.579,58.195,427.927,55.468z"
						/>
					<path style="fill:#E7B932;" d="M418.139,78.78c7.435,5.437,14.365,11.684,20.571,18.501c0.027-1.056,0.055-2.111,0.078-3.167
						c-2.426-2.543-4.983-4.982-7.525-7.39c-5.798-5.492-12.282-10.601-19.19-14.739c-0.524,0.568-1.049,1.137-1.574,1.705
						C413.119,75.269,415.662,76.968,418.139,78.78z"/>
					<path style="fill:#E7B932;" d="M414.459,89.89c7.47,5.463,14.432,11.742,20.66,18.597c1.067,1.174,2.11,2.384,3.181,3.565
						c0.002-1.127-0.004-2.236,0.033-3.289c-0.378-0.43-0.755-0.86-1.134-1.284c-3.015-3.375-6.332-6.533-9.616-9.645
						c-6.766-6.409-14.461-12.306-22.68-16.734c-0.246-0.132-0.488-0.275-0.732-0.412c-0.5,0.584-0.989,1.174-1.476,1.765
						C406.813,84.625,410.702,87.142,414.459,89.89z"/>
				</g>
				<path style="fill:#18203D;" d="M369.908,115.29c1.384,0.685,3.447,0.464,4.812,0.422c5.588-0.171,11.187-0.024,16.754,0.503
					c5.417,0.513,10.95,0.955,16.129,2.739c2.257,0.777,4.269,1.238,3.874,3.819c-0.386,2.523-1.713,5.758-0.547,8.199
					c0.565,1.182,1.743,2.495,2.484,3.561c1.808,2.601,2.781,5.696,4.102,8.546c1.197,2.582,2.197,5.204,2.567,8.044
					c0.235,1.806,0.236,3.635,0.09,5.449c-0.079,0.984-0.226,5.865-1.051,6.323c2.15-1.196,4.287-2.463,6.44-3.69
					c2.429-1.383,3.582-4.009,4.852-6.359c0.664-1.23,1.358-2.477,2.325-3.5c1.088-1.151,2.535-1.903,3.49-3.191
					c1.953-2.633,0.386-5.22,0.439-8.091c0.054-2.935,2.019-5.365,2.742-8.128c0.653-2.499,0.554-5.167-0.135-7.645
					c-1.418-5.094-5.298-9.634-10.275-11.528c-1.275-0.485-2.735-0.557-3.88-1.354c-0.885-0.616-1.343-1.834-2-2.674
					c-1.563-2.001-3.635-3.45-6.235-3.589c-3.699-0.197-7.652,1.685-10.635-1.143c-2.392-2.267-2.717-5.231-6.565-5.503
					c-2.658-0.188-4.967,1.487-7.526,1.328c-2.91-0.18-4.931-2.473-7.602-3.299c-7.49-2.315-15.953,5.158-17.021,12.373
					c-0.369,2.491-0.233,6.028,1.678,7.904C369.415,115.002,369.649,115.162,369.908,115.29z"/>
				
					<line style="fill:none;stroke:#18203D;stroke-width:2.8276;stroke-miterlimit:10;" x1="406.429" y1="143.442" x2="422.854" y2="140.622"/>
				<path style="fill:#AD5B2F;" d="M426.128,138.566c-5.082-5.526-9.968,7.871-9.968,7.871l1.954,11.181
					C429.45,154.726,431.209,144.092,426.128,138.566z"/>
			</g>
			<g>
				<g>
					<g>
						<path style="fill:#8D4925;" d="M376.069,164.171c3.422,1.483,7.568,1.476,10.803-0.484l0.113,0.166
							c-0.246,3.061-2.613,4.82-5.313,4.977c-2.715,0.056-5.084-1.507-5.681-4.475L376.069,164.171z"/>
					</g>
					<path style="fill:#EDBCBF;" d="M379.488,156.372c-0.209,0.804-0.705,1.37-1.108,1.265c-0.403-0.105-0.561-0.841-0.353-1.645
						c0.209-0.804,0.705-1.37,1.108-1.265C379.538,154.832,379.696,155.568,379.488,156.372z"/>
					<path style="fill:#18203D;" d="M376.26,149.598c-0.262,2.186-1.655,3.817-3.112,3.643c-1.457-0.174-2.425-2.089-2.163-4.275
						c0.262-2.186,1.655-3.817,3.112-3.643C375.554,145.499,376.522,147.412,376.26,149.598z"/>
					<path style="fill:#18203D;" d="M396.079,149.72c-0.285,2.379-1.924,4.14-3.66,3.932c-1.736-0.208-2.913-2.306-2.627-4.685
						c0.285-2.379,1.924-4.14,3.66-3.932C395.188,145.243,396.364,147.34,396.079,149.72z"/>
					<path style="fill:#8D4925;" d="M377.714,158.866h6.813c0,0-2.037,1.933-3.996,1.854
						C378.572,160.642,377.714,158.866,377.714,158.866z"/>
					<path style="fill:#8D4925;" d="M378.655,170.263h4.931c0,0-1.474,1.399-2.892,1.342
						C379.276,171.548,378.655,170.263,378.655,170.263z"/>
					<path style="fill:#18203D;" d="M388.704,142.105h9.99c0,0-2.987-2.834-5.86-2.719S388.704,142.105,388.704,142.105z"/>
					<path style="fill:#18203D;" d="M369.59,142.105h9.99c0,0-2.987-2.834-5.86-2.719
						C370.848,139.501,369.59,142.105,369.59,142.105z"/>
					<path style="fill:#DCE8EF;" d="M376.069,164.171l-0.079,0.184c0.139,0.692,0.383,1.299,0.696,1.836
						c2.577,0.327,6.412,0.367,9.518,0.069c0.417-0.682,0.706-1.476,0.781-2.407l-0.113-0.166
						C383.638,165.647,379.491,165.653,376.069,164.171z"/>
				</g>
			</g>
			<path style="fill:none;stroke:#18203D;stroke-width:2.6559;stroke-miterlimit:10;" d="M406.728,146.333
				c0,6.922-4.95,12.533-11.057,12.533c-6.107,0-11.057-5.611-11.057-12.533c0-6.922,4.95-12.533,11.057-12.533
				C401.777,133.8,406.728,139.412,406.728,146.333z"/>
			<path style="fill:none;stroke:#18203D;stroke-width:2.343;stroke-miterlimit:10;" d="M379.342,146.333
				c0,6.922-3.853,12.533-8.605,12.533c-4.753,0-8.606-5.611-8.606-12.533c0-6.922,3.853-12.533,8.606-12.533
				C375.489,133.8,379.342,139.412,379.342,146.333z"/>
			<path style="fill:none;stroke:#18203D;stroke-width:2.4324;stroke-miterlimit:10;" d="M378.724,141.651
				c2.362-2.583,4.842-2.248,7.4,0"/>
			<g>
				<g>
					<path style="fill:#8D4925;" d="M419.006,147.119c0,0,0.973-4.623,3.872-4.31c2.899,0.314,3.604,7.444,0.705,9.403
						c-2.899,1.959-5.172,0.554-5.172,0.554s2.194-0.711,2.429-2.514S419.006,147.119,419.006,147.119z"/>
				</g>
			</g>
		</g>
		<g>
			<g>
				<path style="fill:#8D4925;" d="M334.291,90.873c0.866,0.022,1.659,0.576,2.443,0.89c0.971,0.389,1.979,0.686,2.954,1.07
					c2.043,0.806,4.091,1.629,6.095,2.528c0.596,0.268,1.118-0.615,0.517-0.884c-2.085-0.935-4.215-1.792-6.34-2.631
					c-1.034-0.408-2.124-0.703-3.14-1.153c-0.816-0.361-1.615-0.82-2.529-0.844C333.632,89.832,333.632,90.856,334.291,90.873
					L334.291,90.873z"/>
			</g>
		</g>
		<g>
			<g>
				<path style="fill:#8D4925;" d="M343.813,100.384c-1.443-0.063-2.788,0.501-4.061,1.118c-1.33,0.644-2.712,1.196-4.011,1.9
					c-0.579,0.314-0.063,1.199,0.517,0.884c1.224-0.664,2.526-1.172,3.776-1.785c1.186-0.582,2.428-1.152,3.779-1.093
					C344.472,101.437,344.47,100.412,343.813,100.384L343.813,100.384z"/>
			</g>
		</g>
		<path style="fill:#3F70A5;" d="M431.63,232.918c-0.37,5.83-1.3,18.7-2.07,22.5c-1.7,8.27-2.11,16.83-4.19,21.89
			c-2.08,5.06-3.79,2.82-5.53,6.15c-1.73,3.34,2.54,1.53-1.04,5.85c-1.18,1.43-3.78,2.44-7,3.15c-1.22-0.92-2.42-2.05-2.73-3.06
			c-0.41-1.36-0.14-3.97,0-5.4c0.25-2.4,1.05-3.11,2.94-4.39c3.06-2.07,3.82-4.07,5.03-7.4c1.78-4.93,3.27-9.35,4.1-14.62
			c0.93-5.83,1.9-11.65,2.6-17.52c0.62-5.18-0.68-10.71,0.04-15.79c1.88,1.58,3.74,3.52,5.32,5.4
			C429.92,230.648,430.74,231.888,431.63,232.918z"/>
	</g>
</g>
</svg>
