<?xml version="1.0" encoding="utf-8"?>
<!-- Generator: Adobe Illustrator 27.5.0, SVG Export Plug-In . SVG Version: 6.00 Build 0)  -->
<svg version="1.1" xmlns="http://www.w3.org/2000/svg" xmlns:xlink="http://www.w3.org/1999/xlink" x="0px" y="0px"
	 viewBox="0 0 600 400" style="enable-background:new 0 0 600 400;" xml:space="preserve">
<g id="_x30_">
	<rect style="opacity:0;fill:#FFFFFF;" width="600" height="400"/>
</g>
<g id="bg">
	<g>
		<path style="fill:#EBF6FF;" d="M507.572,205.697c-0.276,0-0.5-0.224-0.5-0.5v-87.874c0-0.276,0.224-0.5,0.5-0.5
			c0.276,0,0.5,0.224,0.5,0.5v87.874C508.072,205.474,507.849,205.697,507.572,205.697z"/>
	</g>
	<g>
		<path style="fill:#EBF6FF;" d="M89.975,262.027c-0.276,0-0.5-0.224-0.5-0.5V123.381c0-0.276,0.224-0.5,0.5-0.5h56.214
			c0.276,0,0.5,0.224,0.5,0.5c0,0.276-0.224,0.5-0.5,0.5H90.475v137.646C90.475,261.804,90.251,262.027,89.975,262.027z"/>
	</g>
	<path style="fill:#EBF6FF;" d="M421.323,244.414H147.091c-3.831,0-6.937-3.106-6.937-6.937V44.533c0-3.831,3.106-6.937,6.937-6.937
		h274.232c3.831,0,6.937,3.106,6.937,6.937v192.944C428.26,241.309,425.154,244.414,421.323,244.414z"/>
	<path style="fill:#C7E3FC;" d="M203.411,346.874H71.256c-3.831,0-6.937-3.106-6.937-6.937v-71.609c0-3.831,3.106-6.937,6.937-6.937
		h132.155c3.831,0,6.937,3.106,6.937,6.937v71.609C210.348,343.769,207.242,346.874,203.411,346.874z"/>
	<path style="fill:#C7E3FC;" d="M513.362,146.349h-94.97c-3.831,0-6.937-3.106-6.937-6.937V72.443c0-3.831,3.106-6.937,6.937-6.937
		h94.97c3.831,0,6.937,3.106,6.937,6.937v66.968C520.299,143.243,517.193,146.349,513.362,146.349z"/>
	<path style="fill:#97BBDE;" d="M428.26,53.159H140.154v-8.626c0-3.831,3.106-6.937,6.937-6.937h274.232
		c3.831,0,6.937,3.106,6.937,6.937V53.159z"/>
	<g>
		<path style="fill:#FFFFFF;" d="M155.307,45.378c0,1.846-1.496,3.343-3.342,3.343c-1.846,0-3.343-1.496-3.343-3.343
			c0-1.846,1.496-3.343,3.343-3.343C153.811,42.035,155.307,43.532,155.307,45.378z"/>
		<path style="fill:#FFFFFF;" d="M166.565,45.378c0,1.846-1.496,3.343-3.342,3.343c-1.846,0-3.343-1.496-3.343-3.343
			c0-1.846,1.496-3.343,3.343-3.343C165.069,42.035,166.565,43.532,166.565,45.378z"/>
		<path style="fill:#FFFFFF;" d="M177.823,45.378c0,1.846-1.497,3.343-3.343,3.343c-1.846,0-3.342-1.496-3.342-3.343
			c0-1.846,1.497-3.343,3.342-3.343C176.327,42.035,177.823,43.532,177.823,45.378z"/>
	</g>
	<rect x="168.845" y="95.36" style="fill:#ADBAE7;" width="23.861" height="129.978"/>
	<rect x="209.809" y="118.867" style="fill:#97BBDE;" width="23.861" height="106.471"/>
	<rect x="250.774" y="130.286" style="fill:#ADBAE7;" width="23.861" height="95.051"/>
	<rect x="291.738" y="138.705" style="fill:#97BBDE;" width="23.861" height="86.633"/>
	<rect x="332.703" y="120.588" style="fill:#97BBDE;" width="23.861" height="104.75"/>
	<rect x="373.667" y="87.547" style="fill:#ADBAE7;" width="23.861" height="137.791"/>
	<g>
		<g>
			<path style="fill:#275F91;" d="M404.421,225.838h-243.05c-0.276,0-0.5-0.224-0.5-0.5V74.312c0-0.276,0.224-0.5,0.5-0.5
				c0.276,0,0.5,0.224,0.5,0.5v150.526h242.55c0.276,0,0.5,0.224,0.5,0.5C404.921,225.614,404.697,225.838,404.421,225.838z"/>
		</g>
		<g>
			<path style="fill:#275F91;" d="M164.703,74.252c-0.173,0-0.342-0.09-0.434-0.251l-2.901-5.062l-2.941,5.064
				c-0.139,0.239-0.444,0.319-0.683,0.181c-0.239-0.139-0.32-0.444-0.181-0.683l3.376-5.813c0.089-0.154,0.254-0.249,0.432-0.249
				c0.155,0,0.344,0.096,0.434,0.251l3.331,5.813c0.138,0.24,0.055,0.545-0.185,0.682C164.873,74.231,164.787,74.252,164.703,74.252
				z"/>
		</g>
		<g>
			<path style="fill:#275F91;" d="M405.767,229.192c-0.173,0-0.342-0.09-0.434-0.251c-0.138-0.24-0.055-0.546,0.185-0.683
				l5.062-2.901l-5.064-2.94c-0.239-0.139-0.32-0.445-0.182-0.684c0.139-0.241,0.445-0.32,0.684-0.182l5.814,3.376
				c0.154,0.09,0.25,0.255,0.249,0.434c-0.001,0.179-0.097,0.344-0.251,0.433l-5.814,3.332
				C405.936,229.171,405.852,229.192,405.767,229.192z"/>
		</g>
	</g>
	<g>
		<g>
			<path style="fill:#275F91;" d="M288.822,130.221c-9.61,0-18.404-1.012-25.668-2.286c-48.462-8.502-91.92-47.899-92.354-48.296
				c-0.204-0.187-0.217-0.503-0.031-0.707c0.187-0.203,0.503-0.217,0.707-0.031c0.431,0.395,43.681,39.598,91.851,48.048
				c26.492,4.647,91.297,8.181,120.846-59.211c0.111-0.253,0.408-0.366,0.659-0.257c0.253,0.111,0.367,0.406,0.257,0.659
				c-11.707,26.7-30.055,45.091-54.533,54.665C316.331,128.368,301.829,130.221,288.822,130.221z"/>
		</g>
		<g>
			<path style="fill:#275F91;" d="M387.615,69.353c-0.266,0-0.487-0.209-0.499-0.477l-0.27-5.827l-4.93,3.162
				c-0.23,0.147-0.541,0.082-0.69-0.151c-0.15-0.232-0.081-0.542,0.151-0.691l5.659-3.629c0.152-0.097,0.341-0.104,0.499-0.023
				c0.159,0.083,0.262,0.243,0.27,0.421l0.309,6.693c0.013,0.276-0.2,0.51-0.476,0.522
				C387.631,69.353,387.623,69.353,387.615,69.353z"/>
		</g>
	</g>
	<path style="fill:#FFFFFF;" d="M492.806,94.008c3.557,8.038,3.224,16.812-0.186,24.216l-26.747-12.298l-19.055-22.442
		c2.099-1.796,4.486-3.307,7.141-4.482C468.83,72.421,486.225,79.136,492.806,94.008z"/>
	<path style="fill:#8DC3F0;" d="M492.619,118.224c-2.888,6.306-7.996,11.612-14.829,14.635c-12.144,5.373-25.959,1.874-34.209-7.685
		c2.447-2.112,6.239-5.394,10.013-8.646l1.105-0.955c5.777-4.994,11.173-9.647,11.173-9.647L492.619,118.224z"/>
	<path style="fill:#FFD294;" d="M465.872,105.925c0,0-5.397,4.653-11.173,9.647l-1.105,0.955c-3.773,3.252-7.566,6.534-10.013,8.646
		c-1.851-2.15-3.426-4.607-4.633-7.335c-5.41-12.225-1.835-26.139,7.869-34.356L465.872,105.925z"/>
	<g>
		<g>
			<path style="fill:#EBF6FF;" d="M524.746,253.126h-33.555c-4.101,0-7.438-3.336-7.438-7.437v-33.555
				c0-4.101,3.337-7.438,7.438-7.438h33.555c4.101,0,7.436,3.337,7.436,7.438v33.555
				C532.183,249.79,528.847,253.126,524.746,253.126z M491.191,205.697c-3.55,0-6.438,2.888-6.438,6.438v33.555
				c0,3.549,2.888,6.437,6.438,6.437h33.555c3.549,0,6.436-2.888,6.436-6.437v-33.555c0-3.55-2.888-6.438-6.436-6.438H491.191z"/>
		</g>
		<rect x="489.064" y="241.794" style="fill:#ADBAE7;" width="37.809" height="3.743"/>
		<polygon style="fill:#C7E3FC;" points="507.572,214.971 517.477,238.981 490.237,238.981 		"/>
		<polygon style="fill:#8DC3F0;" points="516.081,224.046 526.873,238.981 507.572,238.981 		"/>
		<circle style="fill:#ADBAE7;" cx="495.234" cy="214.971" r="4.499"/>
		<path style="fill:#C7E3FC;" d="M526.873,221.165h-11.951c0.644-0.783,1.685-1.605,2.963-2.269c2.507-1.298,4.985-1.496,5.53-0.446
			c0.178,0.347,0.129,0.783-0.109,1.259c1.496-0.377,2.894-0.03,3.409,0.971C526.794,220.828,526.854,220.997,526.873,221.165z"/>
	</g>
	<rect x="80.163" y="272.033" style="fill:#FFD294;" width="25.722" height="25.722"/>
	<rect x="80.163" y="310.511" style="fill:#FFFFFF;" width="25.722" height="25.722"/>
	<g>
		<g>
			<path style="fill:#FFFFFF;" d="M194.685,273.602h-74.926c-0.276,0-0.5-0.224-0.5-0.5c0-0.276,0.224-0.5,0.5-0.5h74.926
				c0.276,0,0.5,0.224,0.5,0.5C195.185,273.378,194.961,273.602,194.685,273.602z"/>
		</g>
		<g>
			<path style="fill:#FFFFFF;" d="M194.685,281.613h-74.926c-0.276,0-0.5-0.224-0.5-0.5c0-0.276,0.224-0.5,0.5-0.5h74.926
				c0.276,0,0.5,0.224,0.5,0.5C195.185,281.39,194.961,281.613,194.685,281.613z"/>
		</g>
		<g>
			<path style="fill:#FFFFFF;" d="M194.685,289.624h-74.926c-0.276,0-0.5-0.224-0.5-0.5c0-0.276,0.224-0.5,0.5-0.5h74.926
				c0.276,0,0.5,0.224,0.5,0.5C195.185,289.4,194.961,289.624,194.685,289.624z"/>
		</g>
		<g>
			<path style="fill:#FFFFFF;" d="M177.679,297.635h-57.92c-0.276,0-0.5-0.224-0.5-0.5c0-0.276,0.224-0.5,0.5-0.5h57.92
				c0.276,0,0.5,0.224,0.5,0.5C178.179,297.411,177.955,297.635,177.679,297.635z"/>
		</g>
	</g>
	<g>
		<g>
			<path style="fill:#FFFFFF;" d="M146.188,311.855h-26.43c-0.276,0-0.5-0.224-0.5-0.5c0-0.276,0.224-0.5,0.5-0.5h26.43
				c0.276,0,0.5,0.224,0.5,0.5C146.688,311.632,146.465,311.855,146.188,311.855z"/>
		</g>
		<g>
			<path style="fill:#FFFFFF;" d="M194.685,319.866h-74.926c-0.276,0-0.5-0.224-0.5-0.5s0.224-0.5,0.5-0.5h74.926
				c0.276,0,0.5,0.224,0.5,0.5S194.961,319.866,194.685,319.866z"/>
		</g>
		<g>
			<path style="fill:#FFFFFF;" d="M194.685,327.877h-74.926c-0.276,0-0.5-0.224-0.5-0.5c0-0.276,0.224-0.5,0.5-0.5h74.926
				c0.276,0,0.5,0.224,0.5,0.5C195.185,327.653,194.961,327.877,194.685,327.877z"/>
		</g>
		<g>
			<path style="fill:#FFFFFF;" d="M189.194,335.889h-69.436c-0.276,0-0.5-0.224-0.5-0.5c0-0.276,0.224-0.5,0.5-0.5h69.436
				c0.276,0,0.5,0.224,0.5,0.5C189.694,335.665,189.471,335.889,189.194,335.889z"/>
		</g>
	</g>
	<g>
		<path style="fill:#275F91;" d="M93.023,295.954c-0.109,0-0.217-0.036-0.305-0.104l-16.81-12.947
			c-0.219-0.169-0.259-0.482-0.091-0.701c0.167-0.219,0.482-0.259,0.701-0.092l16.252,12.517l9.279-28.014
			c0.087-0.263,0.369-0.405,0.632-0.317c0.262,0.087,0.404,0.37,0.317,0.632l-9.5,28.683c-0.051,0.153-0.173,0.273-0.328,0.321
			C93.122,295.947,93.072,295.954,93.023,295.954z"/>
	</g>
</g>
<g id="girl">
	<path style="fill:#2C2A2B;" d="M319.782,135.217c-0.545,1.754-2.299,3.657-4.777,4.945c-3.686,1.903-7.571,1.734-8.671-0.396
		c-1.27-2.46,1.193-4.703,2.842-6.2c1.034-0.939,1.734-1.783,2.196-3.139c0.488-1.431,0.66-2.951,0.8-4.449
		c0.057-0.613,0.087-1.229,0.161-1.84c0.005-0.043,0.185-0.876,0.224-0.831c0.002,0.002,6.015,6.976,6.015,6.976l0.426,1.744
		c0.277,0.228,0.505,0.505,0.674,0.823C320.03,133.542,320.05,134.364,319.782,135.217z"/>
	<g>
		<defs>
			<path id="SVGID_1_" d="M357.263,103.68c-3.483,2.734-8.523,2.127-11.258-1.356c-2.734-3.483-2.127-8.523,1.356-11.258
				c3.483-2.734,8.523-2.127,11.258,1.356C361.354,95.905,360.746,100.945,357.263,103.68z"/>
		</defs>
		<use xlink:href="#SVGID_1_"  style="overflow:visible;fill:#783333;"/>
		<clipPath id="SVGID_00000026869827033288856990000015497817046276817326_">
			<use xlink:href="#SVGID_1_"  style="overflow:visible;"/>
		</clipPath>
		<g style="clip-path:url(#SVGID_00000026869827033288856990000015497817046276817326_);">
			<path style="fill:#2C2A2B;" d="M360.963,104.859c-0.568,0-1.141-0.034-1.716-0.104c-3.41-0.411-6.472-2.004-8.621-4.488
				c-2.155-2.49-3.136-5.576-2.761-8.688c0.772-6.416,7.124-10.945,14.187-10.097c7.049,0.85,12.155,6.761,11.382,13.177
				c-0.374,3.113-2.06,5.877-4.745,7.785C366.462,104.024,363.769,104.859,360.963,104.859z M360.352,81.879
				c-6.097,0-11.311,4.116-11.991,9.759c-0.357,2.971,0.58,5.919,2.643,8.302c2.067,2.39,5.017,3.923,8.304,4.319
				c3.284,0.392,6.516-0.395,9.092-2.224c2.568-1.825,4.181-4.466,4.538-7.437l0,0c0.74-6.143-4.17-11.805-10.946-12.622
				C361.44,81.911,360.893,81.879,360.352,81.879z"/>
		</g>
		<g style="clip-path:url(#SVGID_00000026869827033288856990000015497817046276817326_);">
			<path style="fill:#2C2A2B;" d="M357.51,98.578c-0.307,0-0.616-0.019-0.927-0.056c-3.811-0.459-6.571-3.66-6.153-7.136
				c0.419-3.475,3.854-5.928,7.673-5.47c1.842,0.222,3.496,1.083,4.658,2.426c1.168,1.349,1.699,3.022,1.495,4.71l0,0
				c-0.203,1.688-1.116,3.187-2.571,4.22C360.481,98.127,359.025,98.578,357.51,98.578z M357.185,86.36
				c-3.183,0-5.905,2.144-6.26,5.085c-0.385,3.202,2.18,6.154,5.718,6.58c1.717,0.207,3.406-0.206,4.752-1.162
				c1.339-0.95,2.178-2.326,2.364-3.872l0,0c0.186-1.547-0.303-3.082-1.377-4.323c-1.08-1.249-2.622-2.05-4.341-2.257
				C357.754,86.377,357.468,86.36,357.185,86.36z"/>
		</g>
	</g>
	<g>
		<path style="fill:#65ABE5;" d="M313.628,153.857c-0.069,0.119-2.943,10.257-5.887,20.672c-1.09,3.875-2.19,7.779-3.161,11.228
			c-0.218,0.773-0.696,1.424-0.892,2.17c-1.516,5.785-5.063,9.26-10.146,7.287l-9.562-4.137c0-0.01,17.456-47.713,17.456-47.713
			s5.81-4.393,9.447-3.006C315.798,142.253,316.502,149.447,313.628,153.857z"/>
	</g>
	<path style="fill:#2C2A2B;" d="M307.742,174.529c-1.09,3.875-2.19,7.779-3.161,11.228c-0.218,0.773-0.515,1.496-0.892,2.17
		c0.277-6.164-3.072-13.012-2.884-13.24l4.172-2.22L307.742,174.529z"/>
	<path style="fill:#783333;" d="M326.878,131.818c0.525,0.238,0.832,0.386,0.832,0.386l-2.438,8.949l-7.195,2.606l-8.176-1.209
		c-0.099-0.396,6.233-2.537,3.944-10.316c0-0.01-0.01-0.02-0.01-0.03c0-0.406-0.426-1.06-0.555-1.457
		c-0.188-0.535-0.347-1.09-0.495-1.645c-0.297-1.179-0.515-2.388-0.654-3.607c-0.555-4.886-0.01-10.346,2.17-14.835
		c0.02-0.04,0.05-0.099,0.089-0.178c0.238-0.535,0.852-1.932,1.556-3.26c0.743-1.417,1.586-2.755,2.17-2.904
		c0.486-0.129,0.892,0.575,1.318,1.14c0.267,0.357,0.545,0.654,0.842,0.654c0.951,0,1.863,0.307,2.715,0.862
		c0.109,0.069,0.218,0.149,0.327,0.218c3.102,2.329,5.292,8.116,5.292,14.885C328.612,125.743,327.968,129.122,326.878,131.818z"/>
	<path style="fill:#FAAF49;" d="M350.305,145.449c-4.938,4.477-7.631,13.279-7.006,18.799l0.624,8.612l0.02,0.169
		c0.05,0.525,0.099,1.06,0.149,1.605c0.069,0.733,0.129,1.566,0.208,2.467c0.495,0.01,1.853,19.602,4.499,29.343
		c-8.443,0.149-16.896,0.03-25.34-0.386c-1.001,0.406-2.041,0.793-3.112,1.14c-9.712,3.161-19.816-0.456-19.816-0.456
		c-0.449-1.381,0.155-3.829,1.315-5.579c1.776-2.678,3.012-4.783,3.387-7.586c0.47-3.506,0.711-7.047,0.764-10.619
		c-0.188-1.169-0.377-2.388-0.575-3.637c0-0.049-0.01-0.109-0.02-0.158c-0.079-0.03-0.119-0.04-0.119-0.04
		c-3.716-1.615-5.302-3.994-5.401-6.778c0,0,0,0,0-0.01c0.099-1.913,0.862-4.757,2.289-7.324c0.04-0.079,0.089-0.149,0.129-0.218
		c0.208-0.367,0.436-0.723,0.674-1.09c0,0,0-0.01,0.01-0.01c0.595-0.902,1.259-1.823,1.982-2.735v-0.01
		c0.207-5.928-3.784-15.859-3.572-17.413c0.013-0.04,0.032-0.099,0.045-0.139c0.287-0.633,0.684-1.098,1.228-1.336
		c3.419-1.486,7.524-2.903,10.181-3.844l11.855,15.082l17.316-13.953c0.535-0.674,1.229-1.219,2.081-1.576
		c0,0,9.008,3.865,9.791,5.223C354.29,144,352.794,143.192,350.305,145.449z"/>
	
		<ellipse transform="matrix(0.7393 -0.6733 0.6733 0.7393 13.9852 247.9816)" style="fill:#783333;" cx="327.285" cy="105.928" rx="12.421" ry="9.256"/>
	<path style="fill:#2C2A2B;" d="M347.936,171.368c-0.01,0.069-0.02,0.139-0.03,0.208c-0.109,0.664-0.218,1.308-0.327,1.972
		c-0.436,2.715-3.508,21.485-3.508,21.485c-1.853,1.486-5.797,7.401-12.853,7.451c-3.471-8.015-2.432-20.887,1.159-21.186
		c12.458-1.038,10.42-17.854,10.559-18.062l4.801,7.082L347.936,171.368z"/>
	<path style="fill:#783333;" d="M341.877,100.546c3.258,1.528,4.008,6.801,1.674,11.778c-2.334,4.977-6.867,7.774-10.125,6.246
		c-3.259-1.528-4.008-6.801-1.674-11.779C334.085,101.815,338.619,99.019,341.877,100.546z"/>
	<path style="fill:#65ABE5;" d="M330.316,141.48c-6.412,0-12.011-1.516-15.013-3.786c-0.149-0.109-0.287-0.218-0.426-0.337
		l-2.319,0.942l0.089,0.099l12.056,15.695l18.233-14.003C340.737,140.535,332.913,141.48,330.316,141.48z"/>
	<path style="fill:#2C2A2B;" d="M349.69,206.707c0,0.416-0.357,0.823-1.021,1.209c-0.307,0.178-0.684,0.347-1.12,0.515
		c-3.845,1.467-12.437,2.497-22.436,2.497c-1.744,0-3.449-0.03-5.094-0.089c-7.769-0.288-14.181-1.199-17.352-2.408
		c-1.378-0.525-2.141-1.11-2.141-1.724c0-0.813,1.348-1.576,3.677-2.22c3.746-1.041,10.029-1.774,17.362-1.952
		c1.16-0.03,2.339-0.05,3.548-0.05c8.83,0,16.579,0.803,20.91,2.002c0.466,0.129,0.892,0.268,1.278,0.396
		C348.838,205.438,349.69,206.053,349.69,206.707z"/>
	<path style="fill:#FFB287;" d="M339.889,138.299l-2.319,2.487c-2.2,0.446-4.658,0.694-7.254,0.694
		c-6.729,0-12.566-1.675-15.44-4.123l1.298-0.525c2.042-0.842,3.538-2.567,4.122-4.628c0.178-0.614,0.268-1.268,0.268-1.932v-13.468
		h13.953v14.25c0,2.468,1.288,4.757,3.399,6.045L339.889,138.299z"/>
	<path style="fill:#2C2A2B;" d="M331.511,125.051c0,0-2.774,5.071-11.211,7.152c0.177-0.617,0.269-1.267,0.269-1.93v-3.906
		L331.511,125.051z"/>
	<g>
		<path style="fill:#65ABE5;" d="M353.347,194.468l-5.51-4.063c-0.981-1.526-1.675-3.26-2.19-5.034
			c-1.11-3.914-1.308-8.037-1.556-10.772c-0.049-0.545-0.099-1.08-0.149-1.605l-0.02-0.168l-0.624-8.612
			c-0.624-5.52,1.194-14.774,6.078-19.31c2.392-2.222,4.141-2.314,4.516-1.947c0.347,0.595,5.589,14.845,8.84,42.959
			C363.356,191.307,359.392,194.448,353.347,194.468z"/>
	</g>
	<path style="fill:#FFB287;" d="M323.874,127.826l-0.232-0.028c-4.572-0.551-7.832-4.704-7.282-9.276l2.222-18.447l18.17,2.189
		l-2.056,17.066C334.055,124.665,329.209,128.469,323.874,127.826z"/>
	<path style="fill:#2C2A2B;" d="M322.5,108.75c-0.377-0.071-0.855-0.235-1.276-0.334c-0.438-0.101-0.88-0.2-1.346-0.263
		c-0.458-0.076-0.899-0.114-1.361-0.113c-0.457,0.013-0.95,0.066-1.49,0.281L317,108.331c-0.057,0.023-0.121-0.005-0.144-0.062
		c-0.008-0.02-0.01-0.041-0.006-0.061c0.121-0.676,0.627-1.208,1.208-1.544c0.587-0.348,1.262-0.496,1.904-0.52
		c0.635-0.014,1.292,0.068,1.902,0.31c0.622,0.25,1.159,0.567,1.635,1.198c0.242,0.32,0.178,0.775-0.141,1.017
		c-0.169,0.128-0.376,0.17-0.57,0.135L322.5,108.75z"/>
	<path style="fill:#2C2A2B;" d="M327.723,107.887c0.712-0.343,1.335-0.378,2.002-0.316c0.654,0.065,1.275,0.292,1.833,0.595
		c0.56,0.315,1.092,0.756,1.455,1.334c0.362,0.565,0.569,1.269,0.367,1.926c-0.018,0.059-0.08,0.091-0.139,0.073
		c-0.02-0.006-0.038-0.018-0.051-0.033l-0.019-0.022c-0.382-0.438-0.796-0.711-1.196-0.932c-0.41-0.212-0.82-0.38-1.262-0.522
		c-0.443-0.157-0.882-0.271-1.317-0.382c-0.419-0.105-0.92-0.178-1.288-0.287l-0.28-0.083c-0.384-0.114-0.603-0.518-0.489-0.903
		C327.402,108.131,327.546,107.973,327.723,107.887z"/>
	<g>
		<path style="fill:#2C2A2B;" d="M331.038,114.401c-0.105,0-0.204-0.068-0.238-0.174c-0.003-0.01-0.347-1.056-1.126-1.599
			c-0.132-0.094-0.257-0.162-0.385-0.208c-0.392-0.152-0.764-0.165-1.11-0.042c-0.393,0.126-0.679,0.374-0.815,0.494
			c-0.076,0.066-0.118,0.103-0.181,0.124c-0.131,0.044-0.271-0.029-0.314-0.161c-0.043-0.131,0.028-0.272,0.16-0.315l0.006-0.024
			c0.162-0.142,0.5-0.437,0.984-0.591c0.448-0.16,0.95-0.145,1.446,0.047c0.167,0.061,0.331,0.148,0.497,0.268
			c0.919,0.639,1.299,1.805,1.315,1.855c0.042,0.131-0.03,0.271-0.162,0.313C331.089,114.397,331.063,114.401,331.038,114.401z"/>
	</g>
	<g>
		<path style="fill:#2C2A2B;" d="M322.769,113.405c-0.105,0-0.204-0.068-0.238-0.174c-0.003-0.01-0.347-1.056-1.126-1.599
			c-0.131-0.094-0.256-0.162-0.385-0.208c-0.391-0.15-0.763-0.164-1.11-0.042c-0.395,0.126-0.68,0.375-0.816,0.494
			c-0.075,0.066-0.116,0.102-0.178,0.122c-0.13,0.044-0.272-0.027-0.316-0.158c-0.044-0.131,0.027-0.272,0.158-0.316l0.007-0.024
			c0.162-0.142,0.5-0.438,0.985-0.592c0.449-0.16,0.952-0.146,1.446,0.047c0.166,0.06,0.335,0.151,0.498,0.269
			c0.918,0.638,1.298,1.805,1.313,1.854c0.042,0.131-0.03,0.271-0.162,0.313C322.819,113.401,322.794,113.405,322.769,113.405z"/>
	</g>
	<path style="fill:#2C2A2B;" d="M320.96,112.243c-0.066,0.549-0.556,0.941-1.095,0.876c-0.539-0.065-0.922-0.562-0.856-1.111
		c0.066-0.549,0.556-0.941,1.095-0.876C320.643,111.197,321.026,111.694,320.96,112.243z"/>
	<path style="fill:#2C2A2B;" d="M329.099,113.224c-0.066,0.549-0.556,0.941-1.095,0.876c-0.539-0.065-0.922-0.562-0.856-1.111
		c0.066-0.549,0.556-0.941,1.095-0.876C328.782,112.178,329.165,112.675,329.099,113.224z"/>
	<g>
		<path style="fill:#A55930;" d="M324.966,117.398c-0.391,0-1.695-0.025-2.23-0.352c-0.195-0.12-0.276-0.169,1.226-6.462
			c0.032-0.134,0.163-0.217,0.301-0.185c0.135,0.032,0.218,0.167,0.186,0.301c-0.483,2.026-1.229,5.264-1.327,5.978
			c0.441,0.172,1.397,0.233,1.934,0.219c0.002,0,0.003,0,0.004,0c0.137,0,0.248,0.11,0.25,0.247
			c0.002,0.138-0.108,0.252-0.246,0.253C325.043,117.398,325.01,117.398,324.966,117.398z"/>
	</g>
	<g>
		<path style="fill:#2C2A2B;" d="M333.544,181.609c-3.848,0-6.432-0.861-6.543-0.898c-5.305-2.308-6.855-6.453-4.502-11.995
			c0.055-0.126,0.197-0.188,0.328-0.132c0.127,0.054,0.187,0.201,0.133,0.328c-2.259,5.318-0.838,9.131,4.221,11.333
			c0.008,0.001,2.603,0.864,6.372,0.864c0.112,0,0.226-0.001,0.339-0.003c0.002,0,0.003,0,0.004,0c0.137,0,0.248,0.11,0.25,0.247
			c0.002,0.138-0.108,0.251-0.246,0.253C333.779,181.608,333.661,181.609,333.544,181.609z"/>
	</g>
	<g>
		<path style="fill:#2C2A2B;" d="M311.753,180.509c-3.847,0-6.432-0.861-6.543-0.898c-5.305-2.308-6.854-6.453-4.501-11.995
			c0.098-0.23,2.435-5.645,5.103-8.409c0.097-0.099,0.254-0.101,0.354-0.006c0.1,0.096,0.102,0.254,0.006,0.354
			c-2.604,2.697-4.979,8.202-5.003,8.257c-2.257,5.317-0.837,9.13,4.222,11.333c0.008,0.001,2.604,0.864,6.372,0.864
			c0.112,0,0.226-0.001,0.339-0.002c0.002,0,0.003,0,0.004,0c0.137,0,0.248,0.11,0.25,0.247c0.002,0.138-0.108,0.251-0.246,0.253
			C311.988,180.508,311.87,180.509,311.753,180.509z"/>
	</g>
	<g>
		<path style="fill:#A55930;" d="M325.177,120.838c-0.516,0-1.051-0.087-1.6-0.261l-0.168-0.051
			c-0.131-0.032-0.218-0.162-0.191-0.294c0.027-0.132,0.152-0.217,0.281-0.198c0.021,0.003,0.066,0.016,0.133,0.037l0.093,0.028
			c1.021,0.322,1.976,0.315,2.839-0.019c0.977-0.379,1.437-1.193,1.555-1.433c0.06-0.123,0.213-0.191,0.336-0.132
			c0.123,0.057,0.185,0.187,0.131,0.311l-0.229-0.1l0.222,0.119c-0.186,0.383-0.719,1.269-1.832,1.701
			C326.245,120.741,325.722,120.838,325.177,120.838z"/>
	</g>
	<g>
		<path style="fill:#A55930;" d="M329.081,119.78c-0.054,0-0.107-0.017-0.152-0.052c-0.056-0.043-0.116-0.092-0.174-0.159
			c-0.175-0.156-0.354-0.402-0.527-0.73c-0.184-0.341-0.307-0.683-0.381-0.886l-0.049-0.133c-0.052-0.128,0.01-0.274,0.138-0.326
			c0.126-0.053,0.274,0.009,0.325,0.137c0.015,0.036,0.033,0.088,0.057,0.152c0.068,0.191,0.184,0.51,0.351,0.82
			c0.146,0.278,0.291,0.479,0.444,0.616c0.048,0.053,0.08,0.08,0.121,0.111c0.109,0.084,0.13,0.241,0.046,0.351
			C329.229,119.747,329.156,119.78,329.081,119.78z"/>
	</g>
	<path style="fill:#2C2A2B;" d="M324.668,106.181c-0.168,0.129-0.347,0.277-0.555,0.436c-0.258,0.188-0.525,0.386-0.793,0.575
		c-2.408,1.695-5.203,3.171-8.929,3.29c0.238-0.535,0.852-1.932,1.556-3.26c1.288-0.773,2.606-1.397,3.488-1.764
		c0.119-0.059,0.228-0.099,0.327-0.139c0.763-0.297,1.536-0.416,2.309-0.317C323.023,105.11,323.885,105.527,324.668,106.181z"/>
	<path style="fill:#783333;" d="M336.698,99.575l-6.683-2.169l-2.951,1.597c-0.05-0.047-0.095-0.096-0.148-0.141l1.232-3.503
		c-1.966,0.378-3.932,0.756-5.897,1.134c-3.165,0.608-6.481,1.009-9.376,2.524c-2.098,1.098-4.297,3.806-3.348,6.074
		c1.261,3.013,4.599,4.533,10.016,3.366c2.199-0.474,4.134-1.32,5.623-2.357c0,0,0.022-0.016,0.064-0.046
		c0.628-0.439,5.729-3.854,8.839-1.2c3.318,2.832-0.071,10.211-0.071,10.211s2.913,2.227,3.026,1.917
		c0.113-0.311,5.598-11.467,5.598-11.467L336.698,99.575z"/>
	<path style="fill:#783333;" d="M349.016,151.271c0.099,0.367,0.545,1.338,0.842,2.16h-3.994c-0.466-1.486-0.813-3.141-0.961-4.965
		c-0.03-0.337-0.307,1.853-0.218,4.965h-7.274c-1.348-2.339-2.705-5.609-3.032-9.672c-0.04-0.486-0.604,4.37,0.168,9.672h-5.113
		c-1.893-6.243-0.932-13.24,1.754-19.106c1.566-3.419,2.626-6.749,2.725-10.554l-0.228-8.641l11.208-7.987
		c-0.172,3.908,0.183,7.966,0.381,8.848c0.971,4.242,1.779,6.631,3.444,10.496c0.228,0.555,0.466,1.11,0.674,1.675
		c1.883,4.945-0.277,8.859-0.932,13.745C348.035,145.018,348.293,148.298,349.016,151.271z"/>
	<path style="fill:#FFB287;" d="M337.189,118.899c-1.713,1.344-3.837,1.496-4.746,0.339c-0.908-1.157-0.256-3.185,1.456-4.529
		c1.713-1.344,3.837-1.496,4.746-0.339C339.554,115.527,338.902,117.555,337.189,118.899z"/>
	<path style="fill:#783333;" d="M349.056,138.705c-0.129,0.595-0.297,1.16-0.505,1.714c-0.208,0.555-0.446,1.08-0.714,1.576
		c0.178-0.654,0.376-1.278,0.604-1.873C348.63,139.626,348.828,139.151,349.056,138.705z"/>
	<g>
		<path style="fill:#2C2A2B;" d="M335.675,102.207c-0.074,0-0.148-0.033-0.197-0.096c-0.085-0.109-0.065-0.266,0.043-0.351
			c0.17-0.132,4.18-3.213,6.964-1.16c0.111,0.082,0.135,0.238,0.053,0.35c-0.082,0.112-0.238,0.134-0.35,0.053
			c-2.478-1.828-6.32,1.122-6.358,1.152C335.783,102.19,335.728,102.207,335.675,102.207z"/>
	</g>
	<g>
		<path style="fill:#2C2A2B;" d="M334.683,114.445c-0.094,0-0.183-0.053-0.226-0.143c-0.058-0.121-0.009-0.267,0.109-0.329
			c0.028-0.02,0.072-0.059,0.133-0.111c0.575-0.5,2.331-2.02,4.806-0.852c0.125,0.059,0.179,0.208,0.12,0.333
			c-0.06,0.126-0.21,0.178-0.333,0.12c-2.181-1.027-3.695,0.284-4.266,0.777c-0.116,0.101-0.175,0.151-0.236,0.181
			C334.755,114.438,334.719,114.445,334.683,114.445z"/>
	</g>
	<g>
		<path style="fill:#2C2A2B;" d="M342.997,144.009c-0.12,0-0.226-0.086-0.246-0.208c-0.555-3.27,0.263-5.534,1.053-7.724
			c0.666-1.843,1.354-3.749,1.199-6.264c-0.263-4.298-2.841-8.239-3.941-9.922c-0.398-0.609-0.538-0.827-0.566-0.979
			c-0.025-0.136,0.065-0.266,0.2-0.292c0.14-0.026,0.263,0.063,0.291,0.194c0.029,0.093,0.266,0.453,0.493,0.802
			c1.123,1.716,3.752,5.734,4.023,10.165c0.16,2.617-0.546,4.573-1.229,6.463c-0.804,2.227-1.564,4.33-1.031,7.47
			c0.023,0.136-0.068,0.266-0.204,0.289C343.024,144.008,343.011,144.009,342.997,144.009z"/>
	</g>
	<path style="fill:#275F91;" d="M352.267,220.6H297.96l4.707-12.169l1.536-3.944c3.746-1.041,10.029-1.774,17.362-1.952
		c1.16-0.03,2.339-0.05,3.548-0.05c8.83,0,16.579,0.803,20.91,2.002l1.526,3.944L352.267,220.6z"/>
	<path style="fill:#275F91;" d="M342.327,256.831c-8.76,1.516-18.403-11.892-21.524-29.948c-0.376-2.131-0.634-4.231-0.793-6.283
		c-0.268-3.429-0.258-6.709,0.01-9.761c0.268-3.033,0.793-5.827,1.546-8.305c1.16-0.03,2.339-0.05,3.548-0.05
		c8.83,0,16.579,0.803,20.91,2.002c0.466,0.129,0.892,0.268,1.278,0.396c0.486,0.971,0.941,1.982,1.368,3.032
		c1.665,4.004,2.993,8.562,3.845,13.467C355.646,239.439,351.087,255.305,342.327,256.831z"/>
	<path style="fill:#65ABE5;" d="M359.234,197.6c1.802-1.933,3.792-5.139,3.5-8.796c-0.609-7.628-8.732-12.331-15.727-8.406
		c-5.364,2.22-11.811,4.467-11.807,4.489c-0.31,0.024-0.308,0.312-0.609,0.398c-5.459,1.558-5.797,11.577-3.052,20.436
		c2.516,8.12,7.652,16.002,12.696,16.06c0.459,0.005,0.916-0.055,1.372-0.184c1.362-0.389,2.386-1.32,3.113-2.634
		c2.055-3.023,3.104-8.411,3.909-12.087c0.736-3.363,3.628-6.497,5.332-8.119c0.443-0.342,0.862-0.716,1.248-1.127
		C359.215,197.623,359.231,197.609,359.234,197.6z"/>
	<g>
		<path style="fill:#2C2A2B;" d="M334.194,145.786c-0.133,0-0.244-0.104-0.25-0.239c-0.169-3.781,1.096-6.155,2.435-8.67
			c1.474-2.767,2.998-5.628,2.669-10.685c-0.01-0.138,0.095-0.257,0.232-0.266c0.163-0.018,0.258,0.096,0.266,0.233
			c0.339,5.199-1.219,8.124-2.726,10.953c-1.306,2.452-2.539,4.768-2.376,8.412c0.006,0.138-0.101,0.255-0.239,0.261
			C334.202,145.786,334.198,145.786,334.194,145.786z"/>
	</g>
	<g>
		<path style="fill:#2C2A2B;" d="M314.479,107.213c-0.544,0-1.107-0.058-1.692-0.182c-1.523-0.325-3.751-1.708-3.694-3.648
			c0.004-0.136,0.115-0.243,0.25-0.243c0.002,0,0.005,0,0.008,0c0.138,0.004,0.246,0.119,0.242,0.257
			c-0.049,1.655,1.939,2.854,3.298,3.144c3.704,0.79,6.408-1.245,9.274-3.396c2.529-1.898,5.147-3.842,8.496-3.72
			c0.138,0.006,0.245,0.123,0.239,0.261c-0.006,0.134-0.116,0.239-0.25,0.239c-0.003,0-0.007,0-0.011,0
			c-3.16-0.144-5.716,1.774-8.174,3.62C320.058,105.353,317.58,107.212,314.479,107.213z"/>
	</g>
	<g>
		<path style="fill:#2C2A2B;" d="M339.236,107.241c-0.128,0-0.236-0.097-0.249-0.226c-0.093-0.963-0.496-1.719-1.198-2.246
			c-1.424-1.067-4.035-1.249-7.768-0.541c-0.133,0.025-0.236,0.045-0.304,0.056c-0.131,0.025-0.265-0.071-0.286-0.207
			c-0.021-0.136,0.071-0.265,0.208-0.287c0.064-0.01,0.162-0.029,0.288-0.053c1.446-0.274,5.84-1.108,8.161,0.632
			c0.819,0.614,1.289,1.489,1.396,2.598c0.013,0.137-0.088,0.259-0.225,0.273C339.252,107.241,339.244,107.241,339.236,107.241z"/>
	</g>
	<path style="fill:#65ABE5;" d="M298.37,178.763c-3.548-2.242-7.095-4.484-10.643-6.726c-5.808-3.67-11.615-7.341-17.423-11.011
		c-1.29-0.815-7.046-4.637-7.046-4.637c-3.109,0.224-8.075,12.733-9.366,18.152c-1.143,4.797-2.903,11.528-0.405,16.157
		c1.385,2.567,4.305,2.896,6.912,2.386c1.92-0.376,3.678-1.256,5.522-1.875c2.007-0.674,3.974-0.787,6.057-0.43l19.969,5.477
		c4.452,0.975,8.023-0.761,9.833-3.533C303.968,189.373,302.498,181.285,298.37,178.763z"/>
	<path style="fill:#2C2A2B;" d="M265.932,174.906c-0.03,0.367-0.069,0.733-0.119,1.11c-1.338,10.554-6.432,17.669-10.306,16.599
		c-3.904-1.1-4.182-8.632-1.675-18.145c0.565-2.299,1.209-4.549,1.883-6.64c1.308-4.023,2.785-7.452,4.271-9.504
		c0.922-1.278,1.833-2.022,2.715-2.041c1.368-0.049,2.448,2.081,3.042,5.47C266.348,165.174,266.477,169.862,265.932,174.906z"/>
	<path style="fill:#2C2A2B;" d="M343.754,221.72c-3.449,0.466-8.939-5.54-12.417-15.667c-1.288-3.786-1.814-7.462-1.734-10.663
		c0.099-4.043,1.179-7.314,2.914-9.077c0.595-0.605,1.259-1.031,1.992-1.258c0.416-0.119,0.813-0.178,1.219-0.178h0.01
		c3.052,0.01,5.668,3.558,7.462,9.196c0.585,1.833,1.07,3.885,1.467,6.105C346.588,210.017,350.641,220.789,343.754,221.72z"/>
	<g>
		<path style="fill:#2C2A2B;" d="M296.101,181.345c-0.118,0-0.223-0.084-0.245-0.204c-0.607-3.233-3.464-6.35-8.048-8.775
			c-0.111-0.059-0.184-0.098-0.214-0.117c-0.117-0.074-0.151-0.229-0.078-0.345c0.075-0.116,0.23-0.149,0.345-0.078
			c0.025,0.016,0.087,0.048,0.18,0.098c4.721,2.498,7.67,5.739,8.305,9.125c0.025,0.136-0.064,0.266-0.2,0.292
			C296.131,181.343,296.116,181.345,296.101,181.345z"/>
	</g>
	<g>
		<path style="fill:#2C2A2B;" d="M344.418,179.794c-0.128,0-0.237-0.098-0.249-0.228l-1.481-16.308
			c0.006-0.093,0.004-0.159,0.003-0.251c-0.022-2.761,1.002-4.74,3.041-5.88c0.12-0.066,0.273-0.026,0.34,0.096
			c0.067,0.121,0.024,0.273-0.096,0.34c-1.868,1.044-2.805,2.875-2.785,5.44c0.001,0.135,0,0.228-0.007,0.271l1.483,16.247
			c0.013,0.137-0.089,0.259-0.227,0.271C344.433,179.793,344.425,179.794,344.418,179.794z"/>
	</g>
	<g>
		<path style="fill:#2C2A2B;" d="M340.589,153.512c-0.071,0-0.143-0.03-0.191-0.089c-1.647-1.968-3.991-7.784-0.72-13.202
			c0.071-0.118,0.227-0.154,0.343-0.085c0.118,0.071,0.156,0.225,0.085,0.343c-3.132,5.186-0.897,10.744,0.675,12.622
			c0.089,0.106,0.075,0.264-0.031,0.353C340.702,153.493,340.645,153.512,340.589,153.512z"/>
	</g>
	<g>
		<path style="fill:#2C2A2B;" d="M334.345,185.631c-0.1,0-0.194-0.06-0.232-0.159c-0.051-0.128,0.013-0.273,0.142-0.324l9.795-3.83
			c5.202-1.712,10.607-2.448,14.971,3.673c0.081,0.112,0.055,0.269-0.058,0.349c-0.112,0.079-0.268,0.054-0.349-0.059
			c-4.179-5.858-9.389-5.141-14.395-3.493l-9.782,3.826C334.406,185.626,334.375,185.631,334.345,185.631z"/>
	</g>
	<g>
		<path style="fill:#2C2A2B;" d="M349.025,218.732c-0.051,0-0.103-0.016-0.146-0.048c-0.112-0.08-0.137-0.237-0.056-0.349
			c3.089-4.271,3.204-10.072,3.288-14.31c0.051-2.559,0.091-4.58,0.765-5.501c0.084-0.111,0.24-0.135,0.35-0.054
			c0.111,0.081,0.136,0.238,0.055,0.349c-0.582,0.795-0.622,2.844-0.669,5.216c-0.086,4.303-0.202,10.196-3.384,14.593
			C349.179,218.696,349.102,218.732,349.025,218.732z"/>
	</g>
	<g>
		<path style="fill:#2C2A2B;" d="M265.337,191.667c-0.102,0-0.199-0.064-0.235-0.166c-0.046-0.13,0.021-0.273,0.151-0.319
			c0.063-0.022,0.189-0.085,0.372-0.174c4.564-2.224,8.754-2.852,12.456-1.87c0.134,0.036,0.213,0.172,0.178,0.306
			c-0.036,0.133-0.17,0.216-0.306,0.178c-3.584-0.95-7.657-0.333-12.109,1.836c-0.209,0.102-0.353,0.171-0.423,0.196
			C265.393,191.663,265.365,191.667,265.337,191.667z"/>
	</g>
	<g>
		<path style="fill:#2C2A2B;" d="M360.991,173.381c-0.103,0-0.2-0.064-0.236-0.168c-1.167-3.336-4.978-8.088-6.23-9.649
			l-0.139-0.173c-0.086-0.108-0.068-0.265,0.039-0.352c0.107-0.085,0.265-0.067,0.352,0.039l0.138,0.172
			c1.266,1.578,5.117,6.38,6.313,9.797c0.045,0.13-0.023,0.273-0.153,0.318C361.047,173.376,361.019,173.381,360.991,173.381z"/>
	</g>
	<g>
		<path style="fill:#2C2A2B;" d="M343.862,181.983c-0.012,0-0.024-0.001-0.037-0.003c-0.137-0.02-0.23-0.147-0.21-0.284
			c0.326-2.194,3.268-4.381,5.024-5.688c0.482-0.358,0.979-0.729,1.05-0.842c0.073-0.117,0.227-0.153,0.345-0.081
			c0.117,0.072,0.154,0.225,0.083,0.342c-0.113,0.186-0.463,0.45-1.18,0.983c-1.584,1.178-4.532,3.37-4.828,5.36
			C344.091,181.894,343.984,181.983,343.862,181.983z"/>
	</g>
	<g>
		<path style="fill:#2C2A2B;" d="M290.247,173.771c-0.03,0-0.06-0.005-0.089-0.017c-0.126-0.05-0.191-0.186-0.145-0.314
			c0.14-0.381,2.316-3.078,7.136-3.143c0.001,0,0.003,0,0.003,0c0.137,0,0.248,0.11,0.25,0.247c0.002,0.138-0.108,0.251-0.247,0.253
			c-4.489,0.061-6.522,2.457-6.674,2.816C290.441,173.711,290.346,173.771,290.247,173.771z"/>
	</g>
	<g>
		<path style="fill:#2C2A2B;" d="M304.975,160.826c-0.006,0-0.011,0-0.017-0.001c-0.138-0.009-0.242-0.128-0.232-0.266
			c0.235-3.498-1.398-5.901-2.618-6.226c-0.133-0.036-0.213-0.172-0.177-0.306c0.035-0.133,0.177-0.211,0.306-0.177
			c1.633,0.435,3.223,3.247,2.987,6.742C305.215,160.725,305.105,160.826,304.975,160.826z"/>
	</g>
	<path style="fill:#275F91;" d="M331.436,220.68l-0.832,1.566l-2.111,3.984l-18.898,35.686l-6.55,12.367l0.307,4.529l5.431,80.439
		l-4.35,2.458l-37.023-2.458l5.956-88.248c0.188-2.735,0.912-5.401,2.131-7.859l27.302-55.03L331.436,220.68z"/>
	<path style="fill:#2C2A2B;" d="M309.595,261.915l-6.55,12.367l0.307,4.529l-0.06-0.02c-0.545-6.065-1.021-7.72-1.873-9.305
		c1.338-0.644,4.96-1.5,15.365-27.029c4.303-10.559,3.385-17.962,3.484-18.219l8.225,1.992L309.595,261.915z"/>
	<path style="fill:#2C2A2B;" d="M308.782,359.25c-0.416,1.883-3.577,3.122-9.266,3.657c-2.755,0.248-6.105,0.347-10.019,0.268
		c-1.427-0.03-2.795-0.06-4.093-0.119c-2.16-0.079-4.142-0.178-5.946-0.317c-2.269-0.178-4.241-0.396-5.896-0.674
		c-3.736-0.634-5.857-1.536-6.154-2.815c-0.406-1.823,3.488-3.686,12.903-2.349c1.962,0.277,4.162,0.694,6.61,1.278
		c3.27,0.783,6.065,1.328,8.453,1.685c0.813,0.129,1.576,0.228,2.289,0.307c0.624,0.079,1.219,0.139,1.784,0.179
		C307.226,361.004,308.782,359.25,308.782,359.25z"/>
	<path style="fill:#2C2A2B;" d="M346.656,371.261l-3.641,1.249c-1.55,0.531-3.235,0.511-4.772-0.058l-3.772-1.397
		c-1.685-0.624-2.793-2.244-2.764-4.041l0.08-4.867c-0.701-2.344,1.579-4.481,3.873-3.629c0,0,11.281,1.61,12.941,3.191l0.926,4.531
		C349.969,368.397,348.74,370.547,346.656,371.261z"/>
	<path style="fill:#FFB287;" d="M340.333,365.277c-6.005-2.657-8.373-4.449-8.373-4.449l15.408,0.083L340.333,365.277z"/>
	<path style="fill:#275F91;" d="M362.365,359.547c0.03,0.069,0.069,0.139,0.069,0.218c0,1.893-9.236,3.439-20.622,3.439
		c-10.851,0-19.731-1.397-20.543-3.171h-0.119l1.08-90.804l-2.418-51.125l33.694,14.706l-0.188,3.845l-0.03,0.575
		c0,0.089-0.01,0.178-0.01,0.277l-0.069,1.318v0.05l-1.367,27.51c-0.119,2.398-0.03,4.806,0.258,7.195l0.714,5.956
		c0.01,0.02,0.01,0.03,0.01,0.04l9.613,79.963L362.365,359.547z"/>
	<g>
		<path style="fill:#2C2A2B;" d="M321.589,255.865c-0.135,0-0.246-0.107-0.25-0.242c-0.349-11.71-1.018-29.49-1.427-30.479
			c-0.441-1.065-2.803-2.332-3.675-2.73c-0.126-0.058-0.182-0.206-0.124-0.331c0.058-0.126,0.209-0.182,0.331-0.124
			c0.136,0.061,3.323,1.529,3.93,2.993c0.576,1.392,1.376,27.664,1.465,30.654c0.004,0.139-0.104,0.254-0.242,0.258
			C321.594,255.865,321.591,255.865,321.589,255.865z"/>
	</g>
	<g>
		<path style="fill:#2C2A2B;" d="M320.05,215.539c-0.134,0-0.245-0.106-0.25-0.241c-0.04-1.102-0.069-2.372-0.089-3.682
			c-0.048-3.219-0.015-6.859,0.039-9.038c0.004-0.139,0.122-0.227,0.256-0.244c0.139,0.004,0.247,0.118,0.244,0.256
			c-0.054,2.175-0.087,5.807-0.039,9.019c0.02,1.306,0.049,2.572,0.089,3.672c0.005,0.138-0.103,0.254-0.241,0.259
			C320.056,215.539,320.053,215.539,320.05,215.539z"/>
	</g>
	<g>
		<path style="fill:#2C2A2B;" d="M301.718,211.139h-0.299c-0.138,0-0.25-0.112-0.25-0.25s0.112-0.25,0.25-0.25h0.298
			c1.564-0.009,4.34-0.053,6.27-0.084l0.901-0.015c0.452-0.013,0.809-0.02,1.019-0.025l1.186-7.346
			c0.022-0.136,0.145-0.227,0.287-0.207c0.136,0.023,0.228,0.15,0.207,0.287l-1.219,7.551c-0.02,0.119-0.121,0.207-0.242,0.21
			c0,0-0.484,0.01-1.227,0.03l-0.904,0.015C306.063,211.086,303.285,211.13,301.718,211.139z"/>
	</g>
	<g>
		<path style="fill:#2C2A2B;" d="M339.395,211.134c-2.176,0-7.468-0.1-8.718-0.124c-0.121-0.002-0.223-0.091-0.242-0.21
			l-1.327-8.215c-0.022-0.137,0.071-0.265,0.207-0.287c0.147-0.02,0.265,0.071,0.287,0.207l1.294,8.009
			c3.648,0.07,9.004,0.156,9.337,0.109c0.125-0.02,0.263,0.072,0.284,0.207c0.022,0.134-0.063,0.26-0.195,0.285
			C340.251,211.128,339.91,211.134,339.395,211.134z"/>
	</g>
	<g>
		<path style="fill:#2C2A2B;" d="M303.837,286.345c-0.131,0-0.24-0.102-0.249-0.233c-0.2-2.994-0.378-5.382-0.545-7.299
			c-0.533-5.936-1-7.639-1.844-9.208c-0.11-0.22-0.226-0.423-0.352-0.636c-0.07-0.118-0.031-0.272,0.088-0.342
			c0.118-0.072,0.271-0.032,0.342,0.088c0.132,0.223,0.253,0.436,0.365,0.66c0.874,1.625,1.357,3.369,1.898,9.394
			c0.167,1.921,0.346,4.312,0.545,7.31c0.01,0.138-0.095,0.257-0.232,0.266C303.848,286.345,303.842,286.345,303.837,286.345z"/>
	</g>
	<g>
		<path style="fill:#2C2A2B;" d="M280.998,267.933c-0.035,0-0.07-0.007-0.103-0.022c-3.528-1.6-5.233-1.552-6.043-1.229
			c-0.48,0.191-0.598,0.468-0.602,0.479c-0.051,0.127-0.196,0.192-0.322,0.142c-0.127-0.048-0.193-0.187-0.147-0.314
			c0.017-0.048,0.187-0.476,0.84-0.752c0.895-0.378,2.743-0.474,6.48,1.22c0.126,0.057,0.182,0.205,0.124,0.331
			C281.184,267.878,281.093,267.933,280.998,267.933z"/>
	</g>
	<g>
		<path style="fill:#2C2A2B;" d="M341.658,267.933c-0.035,0-0.069-0.007-0.104-0.022c-5.989-2.714-9.711-0.052-9.748-0.026
			c-0.11,0.083-0.267,0.059-0.35-0.053c-0.082-0.111-0.059-0.268,0.053-0.35c0.16-0.118,3.996-2.862,10.252-0.026
			c0.125,0.057,0.182,0.205,0.124,0.331C341.844,267.878,341.753,267.933,341.658,267.933z"/>
	</g>
	<path style="fill:#2C2A2B;" d="M351.841,266.384c-0.119,2.398-0.03,4.806,0.258,7.195l0.714,5.956
		c-0.218-0.704-3.538-8.205-2.616-16.54c0.862-7.749,2.567-17.491,3.013-24.121L351.841,266.384z"/>
	<g>
		<path style="fill:#2C2A2B;" d="M270.424,314.824c-0.006,0-0.012,0-0.017-0.001c-0.138-0.009-0.242-0.128-0.233-0.266
			c0.674-9.978,7.015-24.781,8.121-25.518c0.113-0.076,0.27-0.046,0.347,0.069c0.077,0.115,0.045,0.271-0.069,0.347
			c-0.935,0.623-7.237,15.325-7.899,25.136C270.664,314.723,270.554,314.824,270.424,314.824z"/>
	</g>
	<g>
		<path style="fill:#2C2A2B;" d="M308.003,347.952c-0.126,0-0.234-0.095-0.248-0.223c-1.09-9.742-7.286-20.555-10.615-26.364
			c-1.545-2.696-2.076-3.648-2.02-4.047c0.02-0.137,0.148-0.235,0.283-0.212c0.136,0.019,0.23,0.144,0.213,0.278
			c-0.005,0.307,0.949,1.971,1.958,3.732c3.347,5.84,9.577,16.712,10.677,26.558c0.016,0.137-0.083,0.261-0.221,0.275
			C308.021,347.951,308.012,347.952,308.003,347.952z"/>
	</g>
	<g>
		<path style="fill:#2C2A2B;" d="M321.992,289.497c-0.001,0-0.002,0-0.003,0c-0.138-0.002-0.249-0.115-0.247-0.253
			c0.142-11.936,4.942-24.507,6.571-26.184c0.098-0.099,0.256-0.101,0.354-0.006c0.1,0.097,0.102,0.255,0.006,0.354
			c-1.328,1.367-6.284,13.467-6.431,25.842C322.24,289.387,322.129,289.497,321.992,289.497z"/>
	</g>
	<g>
		<path style="fill:#2C2A2B;" d="M357.74,320.74c-0.113,0-0.216-0.077-0.243-0.192c-1.876-7.879-10.974-22.908-11.697-23.813
			c-0.086-0.108-0.068-0.266,0.039-0.352c0.108-0.086,0.265-0.067,0.352,0.039c0.729,0.912,9.901,16.064,11.793,24.01
			c0.032,0.134-0.051,0.269-0.186,0.301C357.778,320.738,357.759,320.74,357.74,320.74z"/>
	</g>
	<g>
		<path style="fill:#2C2A2B;" d="M284.787,244.664c-0.039,0-0.078-0.009-0.114-0.027c-0.123-0.064-0.172-0.214-0.109-0.337
			c0.036-0.069,3.649-6.966,12.505-10.105c0.128-0.047,0.273,0.021,0.319,0.151c0.046,0.131-0.022,0.273-0.152,0.319
			c-8.661,3.07-12.192,9.796-12.227,9.863C284.965,244.614,284.878,244.664,284.787,244.664z"/>
	</g>
	<g>
		<path style="fill:#2C2A2B;" d="M353.208,235.378c-0.12,0-0.227-0.087-0.246-0.209c-0.686-4.102-3.729-6.456-5.548-7.863
			c-0.852-0.659-1.415-1.095-1.567-1.521c-0.047-0.13,0.022-0.272,0.151-0.319c0.126-0.046,0.273,0.021,0.319,0.151
			c0.104,0.289,0.706,0.755,1.402,1.294c1.877,1.451,5.017,3.881,5.735,8.177c0.022,0.136-0.069,0.265-0.206,0.288
			C353.235,235.377,353.222,235.378,353.208,235.378z"/>
	</g>
	<g>
		<path style="fill:#2C2A2B;" d="M299.237,215.539c-0.081,0-0.16-0.039-0.208-0.111c-0.077-0.114-0.046-0.27,0.068-0.347
			c0.133-0.089,3.374-2.2,11.94-2.375c0.162,0.009,0.252,0.106,0.255,0.245c0.003,0.138-0.107,0.252-0.245,0.255
			c-8.394,0.171-11.64,2.27-11.672,2.291C299.333,215.525,299.285,215.539,299.237,215.539z"/>
	</g>
	<path style="fill:#FFB287;" d="M297.663,360.171c-2.249,0.595-7.006,1.833-12.258,2.884c-5.292,1.07-11.178,1.952-15.43,1.744
		c0,0,1.526-1.16,3.587-2.735c2.032-1.556,4.598-3.518,6.749-5.163c1.962,0.277,4.162,0.694,6.61,1.278
		C291.301,359.23,294.829,359.844,297.663,360.171z"/>
	<g>
		<path style="fill:#2C2A2B;" d="M301.195,202.701c-0.024,0-0.049-0.004-0.073-0.011c-0.132-0.041-0.207-0.181-0.166-0.313
			c1.195-3.881,5.528-5.811,7.16-6.538c0.236-0.105,0.482-0.214,0.532-0.252c0.091-0.101,0.241-0.104,0.345-0.009
			c0.103,0.093,0.103,0.258,0.01,0.36c-0.078,0.086-0.217,0.15-0.684,0.358c-1.574,0.702-5.757,2.565-6.885,6.228
			C301.401,202.632,301.302,202.701,301.195,202.701z"/>
	</g>
	<path style="fill:#2C2A2B;" d="M286.495,370.012v-3.379l-10.346,3.379h-16.54c-1.605,0-3.181-0.396-4.598-1.159
		c-0.793-0.436-0.585-1.635,0.307-1.774l24.14-4.341l15.915-2.874c0.813,0.129,1.576,0.228,2.289,0.307
		c0.624,0.079,1.219,0.139,1.784,0.179l0.069,2.557l0.178,7.105H286.495z"/>
	<path style="fill:#FFB287;" d="M338.271,186.136c0.956,0.487-3.833,4.657-4.998,3.503c-4.813-4.768-9.061-9.923-8.785-11.448l0,0
		c-0.018-0.302,0.324-0.488,0.567-0.308C325.055,177.883,331.228,182.549,338.271,186.136z"/>
	<g>
		<path style="fill:#2C2A2B;" d="M329.78,194.214c0.14,0.764-0.044,1.552-0.508,2.175l-0.182,0.245l-5.253-26.84
			c0.069-1.978-0.539-2.473-1.239-2.457l-24.054,0.045l0.714-0.637c0.378-0.532,0.986-0.851,1.638-0.86l22.582-0.113
			c0.659-0.002,1.225,0.468,1.344,1.116L329.78,194.214z"/>
		<path style="fill:#EBF6FF;" d="M324.335,168.061l5.08,27.675c0.112,0.611-0.357,1.175-0.979,1.175h-23.032
			c-0.646,0-1.204-0.454-1.336-1.087l-5.737-27.6c-0.128-0.616,0.341-1.195,0.971-1.198l23.686-0.083
			C323.649,166.94,324.216,167.411,324.335,168.061z"/>
		<path style="fill:#2C2A2B;" d="M314.581,177.374c-0.071,1.057-1.182,1.843-2.481,1.756c-1.299-0.087-2.295-1.015-2.224-2.072
			c0.071-1.057,1.182-1.843,2.481-1.756C313.657,175.388,314.653,176.316,314.581,177.374z"/>
	</g>
	<g>
		<path style="fill:#FFB287;" d="M265.932,174.906l-10.217-7.076l-2.289-1.586l5.5-8.552l1.06,0.634l5.758,3.429
			C266.348,165.174,266.477,169.862,265.932,174.906z"/>
		<path style="fill:#FFB287;" d="M258.918,158.173l-3.201,9.605c0,0-10.354-1.72-12.484-3.654c-1.592-1.445,3.398-7.9,3.398-7.9
			L258.918,158.173z"/>
		<path style="fill:#FFB287;" d="M262.661,160.1c0.786,0.73-4.961,3.43-5.766,2.001c-3.324-5.903-6-12.024-5.317-13.415l0,0
			c0.065-0.295,0.445-0.381,0.63-0.141C252.208,148.545,256.868,154.723,262.661,160.1z"/>
		<path style="fill:#FFB287;" d="M246.781,159.048c-0.157-0.042-0.333-0.107-0.463-0.17l-0.215-0.123
			c-0.156-0.088-0.236-0.155-0.357-0.233c-0.216-0.152-0.413-0.3-0.603-0.453c-0.382-0.303-0.741-0.613-1.09-0.931
			c-0.7-0.634-1.362-1.296-1.998-1.979c-1.032-1.115-2.523-2.973-3.585-4.478c-0.255-0.361,0.052-0.848,0.488-0.776l0,0
			c0.791,0.132,1.506,0.544,2.035,1.147c0.803,0.914,1.629,1.661,2.607,2.556c0.646,0.589,1.313,1.153,1.999,1.679
			c0.342,0.263,0.69,0.516,1.037,0.748c0.172,0.117,0.347,0.226,0.509,0.321c0.072,0.038,0.176,0.106,0.221,0.12l0.083,0.039
			c-0.027-0.02-0.096-0.047-0.147-0.049L246.781,159.048z"/>
		<path style="fill:#FFB287;" d="M246.683,160.848c-0.151-0.042-0.334-0.105-0.452-0.158l-0.227-0.114
			c-0.16-0.078-0.275-0.149-0.41-0.224c-0.265-0.147-0.503-0.299-0.753-0.45c-0.486-0.306-0.961-0.619-1.427-0.943
			c-0.932-0.647-1.836-1.328-2.707-2.056c-1.576-1.316-3.508-3.321-4.825-5.147c-0.17-0.235,0.004-0.565,0.295-0.568l0,0
			c0.991-0.011,1.956,0.383,2.617,1.121c0.951,1.064,1.963,1.93,3.256,2.865c0.862,0.627,1.759,1.213,2.674,1.76
			c0.457,0.274,0.92,0.536,1.383,0.786c0.23,0.118,0.466,0.247,0.689,0.351c0.109,0.051,0.234,0.116,0.325,0.15l0.146,0.062
			c0.009-0.001-0.042-0.023-0.064-0.017L246.683,160.848z"/>
		<path style="fill:#FFB287;" d="M246.179,163.475c-0.126-0.046-0.274-0.105-0.378-0.154l-0.23-0.119
			c-0.161-0.08-0.282-0.157-0.424-0.236c-0.274-0.157-0.532-0.317-0.792-0.479c-0.514-0.327-1.018-0.661-1.51-1.01
			c-0.985-0.697-1.94-1.43-2.856-2.214c-1.589-1.363-3.731-3.457-5.163-5.325c-0.244-0.318,0.013-0.773,0.412-0.738l0.155,0.014
			c0.922,0.081,1.762,0.531,2.382,1.217c1.062,1.175,2.176,2.067,3.584,3.125c0.905,0.681,1.849,1.314,2.813,1.908
			c0.481,0.298,0.971,0.579,1.462,0.849c0.244,0.132,0.493,0.264,0.734,0.383c0.117,0.055,0.249,0.126,0.353,0.168l0.164,0.073
			c0.03,0.009,0.019,0.001,0.028,0.01L246.179,163.475z"/>
		<path style="fill:#FFB287;" d="M246.04,165.407l-0.32-0.094l-0.212-0.079l-0.4-0.16c-0.173-0.07-0.339-0.144-0.503-0.218
			c-0.332-0.15-0.665-0.3-0.99-0.465c-1.21-0.613-2.388-1.284-3.505-2.063c-1.558-1.077-3.584-2.977-4.902-4.701
			c-0.241-0.315-0.03-0.77,0.365-0.798l0,0c0.752-0.053,1.486,0.232,2.003,0.781c1.057,1.123,2.346,2.069,3.715,2.875
			c1.078,0.643,2.224,1.19,3.384,1.675c0.294,0.123,0.593,0.233,0.892,0.343c0.151,0.055,0.302,0.11,0.45,0.158l0.332,0.106
			l0.157,0.046c0.027,0.004,0.037,0.005,0.055,0.011L246.04,165.407z"/>
	</g>
	<g>
		<path style="fill:#FFB287;" d="M326.518,189.125c-0.175,0.043-0.38,0.074-0.541,0.083l-0.275-0.005
			c-0.199-0.002-0.312-0.024-0.471-0.036c-0.291-0.033-0.561-0.072-0.827-0.119c-0.533-0.091-1.047-0.2-1.556-0.323
			c-1.018-0.242-2.014-0.532-2.998-0.857c-1.598-0.532-4.038-1.542-5.872-2.437c-0.44-0.215-0.402-0.852,0.06-1.014l0,0
			c0.839-0.294,1.753-0.275,2.589,0.028c1.268,0.46,2.468,0.745,3.896,1.093c0.941,0.227,1.891,0.42,2.838,0.564
			c0.473,0.073,2.959,0.404,2.908,0.43L326.518,189.125z"/>
		<path style="fill:#FFB287;" d="M325.417,190.837c-0.158,0.027-0.354,0.046-0.486,0.048l-0.259-0.007
			c-0.181-0.003-0.318-0.02-0.475-0.03c-0.309-0.022-0.594-0.06-0.889-0.092c-0.58-0.074-1.154-0.159-1.724-0.258
			c-1.14-0.197-2.269-0.438-3.387-0.736c-2.023-0.538-4.671-1.56-6.675-2.682c-0.258-0.145-0.239-0.524,0.028-0.652l0,0
			c0.912-0.436,1.973-0.488,2.901-0.09c1.337,0.574,2.645,0.939,4.243,1.248c1.066,0.209,2.147,0.364,3.228,0.476
			c0.54,0.057,1.081,0.1,1.617,0.132c0.263,0.01,0.537,0.028,0.788,0.028c0.123,0,0.266,0.006,0.365-0.001l0.162-0.006
			c0.008-0.005-0.049-0.003-0.067,0.012L325.417,190.837z"/>
		<path style="fill:#FFB287;" d="M327.074,193.345c-0.137,0.012-0.299,0.021-0.416,0.02l-0.264-0.011
			c-0.183-0.005-0.328-0.024-0.494-0.036c-0.321-0.027-0.628-0.064-0.939-0.102c-0.616-0.081-1.226-0.173-1.831-0.284
			c-1.21-0.22-2.409-0.487-3.593-0.818c-2.055-0.576-4.936-1.59-7.063-2.701c-0.362-0.189-0.32-0.72,0.064-0.859l0.149-0.054
			c0.887-0.322,1.857-0.268,2.726,0.1c1.487,0.629,2.901,0.974,4.657,1.346c1.129,0.24,2.275,0.419,3.421,0.553
			c0.573,0.068,1.147,0.118,1.716,0.156c0.283,0.017,0.569,0.032,0.843,0.038c0.132,0.001,0.284,0.009,0.399,0.003l0.183-0.004
			c0.032-0.004,0.018-0.007,0.03-0.003L327.074,193.345z"/>
		<path style="fill:#FFB287;" d="M328.028,194.663l-0.337,0.044l-0.23,0.013l-0.44,0.015c-0.19,0.006-0.375,0.005-0.559,0.003
			c-0.372-0.003-0.744-0.008-1.115-0.028c-1.381-0.076-2.756-0.22-4.118-0.488c-1.896-0.367-4.565-1.309-6.503-2.378
			c-0.354-0.195-0.344-0.706,0.014-0.895l0,0c0.68-0.358,1.483-0.393,2.19-0.092c1.447,0.615,3.038,0.97,4.646,1.16
			c1.27,0.158,2.564,0.199,3.845,0.176c0.325-0.006,0.649-0.026,0.974-0.046c0.164-0.01,0.327-0.021,0.485-0.037l0.354-0.037
			l0.166-0.021c0.027-0.007,0.037-0.011,0.056-0.012L328.028,194.663z"/>
		<path style="fill:#FFB287;" d="M343.199,194.072l-4.737,1.09c-1.813,0.416-3.677,0.585-5.53,0.476
			c-0.981-0.059-2.141-0.139-3.33-0.248c-2.963-0.258-6.104-0.684-7.264-1.348c-1.804-1.041,2.061-7.601,2.061-7.601l8.116-0.129
			l0.951-0.02l-0.119-0.585c0,0,0.961-0.347,2.378-0.832h0.01C338.789,184.885,341.405,188.433,343.199,194.072z"/>
	</g>
	<g>
		<path style="fill:#A55930;" d="M324.476,191.268c-0.007,0-0.015,0-0.021-0.001c-6.817-0.59-11.686-3.17-13.016-3.947
			c-0.118-0.069-0.18-0.232-0.112-0.351c0.068-0.119,0.198-0.174,0.317-0.108c0.002,0.001,0.046,0.026,0.047,0.027
			c1.308,0.763,6.094,3.299,12.807,3.88c0.138,0.012,0.239,0.133,0.227,0.27C324.714,191.169,324.604,191.268,324.476,191.268z"/>
	</g>
	<g>
		<path style="fill:#A55930;" d="M324.284,193.615c-0.009,0-0.017,0-0.025-0.001c-5.909-0.613-11.848-3.95-11.906-3.983
			c-0.12-0.068-0.162-0.221-0.095-0.341c0.067-0.12,0.22-0.164,0.341-0.094c0.059,0.033,5.909,3.318,11.711,3.921
			c0.138,0.014,0.237,0.137,0.224,0.274C324.52,193.519,324.411,193.615,324.284,193.615z"/>
	</g>
	<g>
		<path style="fill:#A55930;" d="M324.476,189.085c-0.006,0-0.013,0-0.02-0.001c-2.837-0.218-5.483-1.221-5.594-1.263
			c-0.13-0.049-0.194-0.194-0.145-0.323c0.049-0.129,0.193-0.193,0.322-0.144c0.027,0.01,2.691,1.019,5.455,1.232
			c0.138,0.01,0.24,0.13,0.229,0.268C324.715,188.985,324.605,189.085,324.476,189.085z"/>
	</g>
	<g>
		<path style="fill:#A55930;" d="M256.675,161.59c-0.056,0-0.113-0.019-0.16-0.058c-1.163-0.964-2.402-3.854-3.037-5.491
			l-0.042-0.105c-0.054-0.125,0.003-0.273,0.128-0.329c0.124-0.055,0.27-0.002,0.328,0.123c0.005,0.011,0.023,0.056,0.052,0.131
			c1.051,2.708,2.104,4.635,2.89,5.287c0.106,0.088,0.121,0.246,0.033,0.352C256.818,161.559,256.747,161.59,256.675,161.59z"/>
	</g>
	<g>
		<path style="fill:#A55930;" d="M243.495,163.251c-0.032,0-0.063-0.006-0.094-0.019c-0.128-0.052-0.189-0.198-0.137-0.326
			l0.124-0.307c0.805-1.984,2.302-5.677,3.81-6.361c0.124-0.055,0.274-0.001,0.33,0.124c0.057,0.126,0.002,0.274-0.124,0.331
			c-1.326,0.602-2.886,4.45-3.553,6.094l-0.125,0.308C243.686,163.192,243.593,163.251,243.495,163.251z"/>
	</g>
	<g>
		<path style="fill:#A55930;" d="M253.036,163.251c-0.076,0-0.151-0.035-0.2-0.1c-0.083-0.11-0.061-0.267,0.05-0.35
			c1.382-1.038,4.305-1.289,5.618-0.091c0.102,0.093,0.109,0.251,0.016,0.353c-0.093,0.102-0.25,0.11-0.353,0.016
			c-1.121-1.021-3.755-0.798-4.981,0.121C253.141,163.234,253.088,163.251,253.036,163.251z"/>
	</g>
	<g>
		<path style="fill:#A55930;" d="M243.672,161.974c-0.041,0-0.082-0.01-0.12-0.03c-0.755-0.412-3.227-1.759-3.325-1.823
			c-0.116-0.076-0.148-0.23-0.073-0.346c0.076-0.115,0.23-0.146,0.344-0.074c0.113,0.068,2.029,1.115,3.293,1.803
			c0.121,0.066,0.166,0.218,0.1,0.339C243.847,161.927,243.761,161.974,243.672,161.974z"/>
	</g>
	<g>
		<path style="fill:#A55930;" d="M244.841,160.152c-0.042,0-0.083-0.01-0.122-0.032c-2.63-1.468-6.07-4.45-6.099-4.478
			c-0.101-0.093-0.107-0.251-0.014-0.352c0.092-0.101,0.251-0.108,0.353-0.016c0.03,0.027,3.451,2.983,6.004,4.409
			c0.12,0.067,0.164,0.22,0.096,0.34C245.014,160.106,244.929,160.152,244.841,160.152z"/>
	</g>
	<g>
		<path style="fill:#A55930;" d="M245.887,157.97c-0.032,0-0.064-0.006-0.095-0.019c-1.906-0.785-5.117-3.509-5.253-3.625
			c-0.105-0.089-0.118-0.248-0.028-0.353c0.089-0.105,0.248-0.118,0.353-0.028c0.033,0.028,3.287,2.789,5.119,3.544
			c0.128,0.052,0.189,0.198,0.136,0.326C246.079,157.912,245.985,157.97,245.887,157.97z"/>
	</g>
	<g>
		<path style="fill:#A55930;" d="M334.484,116.617c-0.046,0-0.092-0.013-0.134-0.039c-0.116-0.074-0.151-0.229-0.077-0.345
			c0.014-0.022,1.45-2.233,3.768-1.217c0.127,0.055,0.185,0.203,0.13,0.329c-0.056,0.126-0.205,0.183-0.329,0.129
			c-1.94-0.846-3.098,0.949-3.147,1.027C334.648,116.576,334.567,116.617,334.484,116.617z"/>
	</g>
	<g>
		<path style="fill:#2C2A2B;" d="M321.859,158.585c-0.037,0-0.074-0.008-0.109-0.025c-0.124-0.06-0.176-0.21-0.115-0.334
			c0.021-0.043,2.118-4.281,6.842-7.345c0.117-0.073,0.271-0.043,0.346,0.074c0.075,0.116,0.042,0.271-0.074,0.346
			c-4.607,2.989-6.643,7.103-6.664,7.144C322.041,158.534,321.952,158.585,321.859,158.585z"/>
	</g>
</g>
<g id="flower">
	<path style="fill:#5B6DAB;" d="M457.262,339.325l-3.865,30.794h-0.059c0,1.031-6.233,1.866-13.933,1.866
		c-7.69,0-13.923-0.834-13.923-1.866h-0.059l-3.865-30.794H457.262z"/>
	<path style="fill:#2C2A2B;" d="M457.262,339.321c0,0.079-0.01,0.149-0.049,0.228c-0.099,0.277-0.406,0.555-0.892,0.803
		c-0.01,0.01-0.02,0.01-0.02,0.01c-1.972,1.05-6.838,1.853-12.863,2.101c-0.466,0.03-0.932,0.04-1.407,0.05
		c-0.614,0.02-1.239,0.03-1.863,0.03c-0.03,0.01-0.059,0.01-0.089,0c-0.089,0.01-0.188,0.01-0.277,0.01h-0.397
		c-0.119,0-0.248,0-0.367-0.01c-0.06,0.01-0.119,0-0.178,0c-0.159,0.01-0.317,0.01-0.476,0c-0.624,0-1.239-0.01-1.853-0.04
		c-0.03,0.01-0.06,0.01-0.089,0c-0.287,0-0.575-0.01-0.862-0.03H435.5c-0.783-0.03-1.546-0.069-2.289-0.119
		c-2.745-0.188-5.173-0.486-7.095-0.872c-2.834-0.575-4.559-1.328-4.559-2.16c0-0.446,0.486-0.862,1.378-1.249
		c1.605-0.684,4.489-1.249,8.126-1.605c0.406-0.03,0.823-0.069,1.239-0.099c0.505-0.04,1.031-0.079,1.556-0.109
		c0.337-0.02,0.694-0.04,1.041-0.06c0.674-0.03,1.358-0.05,2.061-0.069c0.357-0.01,0.714-0.02,1.07-0.01
		c0.069-0.01,0.149-0.01,0.228-0.01h0.059c0.119-0.01,0.248-0.01,0.367,0c0.238-0.01,0.486-0.01,0.723-0.01
		c0.654,0,1.298,0.01,1.933,0.02c0.049,0,0.099,0,0.139,0.01c1.07,0.01,2.121,0.059,3.122,0.109c0.129,0.01,0.258,0.02,0.377,0.03
		C452.109,336.685,457.262,337.894,457.262,339.321z"/>
	<path style="fill:#FFD294;" d="M462.544,283.499c-0.208,0.773-1.07,1.635-1.407,2.071c-2.428,3.042-4.37,6.422-6.075,9.91
		c-0.545,1.08-1.06,2.18-1.556,3.28c-1.189,2.606-2.309,5.252-3.33,7.948c-0.585,1.486-1.14,2.993-1.675,4.499
		c-0.426,1.219-0.842,2.448-1.249,3.677c-0.912,2.755-1.744,5.549-2.557,8.354c-0.753,2.824-1.556,5.639-2.259,8.493
		c-0.377,1.457-0.733,2.923-1.1,4.39c-0.05,0.238-0.109,0.476-0.169,0.723c-0.386,1.605-0.773,3.221-1.159,4.836
		c-0.02,0.099-0.049,0.208-0.069,0.307c-0.05,0.188-0.089,0.377-0.139,0.565h-0.397c-0.178,0-0.367,0-0.545-0.01
		c-0.159,0.01-0.317,0.01-0.476,0c-0.624,0-1.239-0.01-1.853-0.04c-0.03,0.01-0.06,0.01-0.089,0c0.01-0.188,0.02-0.387,0.03-0.575
		c0.109-1.932,0.277-3.865,0.486-5.797c0.129-1.279,0.277-2.557,0.446-3.835c0.04-0.268,0.069-0.525,0.109-0.783
		c0.03-0.248,0.059-0.495,0.099-0.743c0.872-5.956,2.15-11.882,3.895-17.699c1.744-5.807,4.004-11.535,7.096-16.867
		c0.04-0.069,0.089-0.149,0.129-0.218c3.032-5.183,6.858-9.93,11.892-13.259c0.496-0.327,1.407-0.575,1.814,0
		C462.604,282.953,462.613,283.221,462.544,283.499z"/>
	<path style="fill:#97BBDE;" d="M448.73,295.985c0.238,2.081,0.337,4.469,0.267,7.214c-0.02,0.882-0.059,1.794-0.119,2.755
		c-0.109,1.714-0.228,3.478-0.377,5.252c-0.476,5.867-1.189,11.922-2.15,17.243c-0.505,2.854-1.1,5.5-1.754,7.789
		c-0.763,2.606-1.615,4.767-2.567,6.273c-0.614,0.02-1.239,0.03-1.863,0.03c-0.03,0.01-0.059,0.01-0.089,0
		c-0.089,0.01-0.188,0.01-0.277,0.01h-0.397c-0.178,0-0.367,0-0.545-0.01c-0.159,0.01-0.317,0.01-0.476,0
		c-0.624,0-1.239-0.01-1.853-0.04c-0.03,0.01-0.06,0.01-0.089,0c-0.287,0-0.575-0.01-0.862-0.03H435.5
		c-1.09-1.487-2.17-3.578-3.201-6.105c-1.318-3.241-2.557-7.195-3.607-11.436c-0.981-3.944-1.794-8.136-2.368-12.249
		c-0.208-1.496-0.386-2.973-0.525-4.43c-0.178-1.804-0.297-3.568-0.357-5.252c-0.099-2.943-0.01-5.47,0.248-7.651v-0.01
		c0.674-5.708,2.458-8.969,4.707-10.782c-0.882-4.489-0.922-10.158,0.129-15.152c2.061-9.831,9.038-17.501,13.596-16.54
		c4.568,0.961,6.55,10.663,4.489,20.494c-0.842,4.004-2.467,8.096-4.41,11.486C446.351,286.789,448.076,290.188,448.73,295.985z"/>
	<g>
		<path style="fill:#275F91;" d="M438.7,342.515c-0.104,0-0.202-0.066-0.237-0.171c-2.366-7.053-5.078-19.469-4.561-38.566
			c0.854-31.186,9.902-50.821,9.993-51.017c0.06-0.126,0.211-0.176,0.333-0.12c0.125,0.059,0.179,0.208,0.12,0.333
			c-0.091,0.193-9.096,19.744-9.946,50.817c-0.516,19.024,2.182,31.38,4.535,38.395c0.044,0.131-0.027,0.273-0.158,0.317
			C438.753,342.511,438.727,342.515,438.7,342.515z"/>
	</g>
	<path style="fill:#FFD294;" d="M438.859,342.542c-0.159,0.01-0.317,0.01-0.476,0c-0.624,0-1.239-0.01-1.853-0.04
		c-0.03,0.01-0.06,0.01-0.089,0c-0.287,0-0.575-0.01-0.862-0.03c-0.287-1.1-0.575-2.2-0.882-3.29
		c-0.297-0.971-0.575-1.942-0.842-2.923c-0.545-1.952-1.06-3.905-1.665-5.837c-0.139-0.446-0.288-0.902-0.436-1.348
		c-1.595-5.53-3.419-11-5.431-16.391c-0.832-2.23-1.695-4.449-2.596-6.659c-3.449-8.533-7.353-16.896-11.585-25.042
		c-1.219-2.349-2.458-4.687-3.696-7.026c-0.674-1.288-2.725-4.836,0.307-3.26c0.555,0.287,1.041,0.614,1.179,0.763
		c6.501,7.036,11.654,15.212,15.757,23.883v0.01c2.388,5.004,4.42,10.177,6.164,15.38c1.318,3.895,2.507,7.849,3.488,11.842
		c0.287,1.219,0.476,2.487,0.753,3.716c0.119,0.525,0.258,1.051,0.426,1.556l0.575,2.626c0.119,0.604,0.208,1.209,0.307,1.823
		c0.05,0.277,0.089,0.555,0.139,0.832c0.159,1.001,0.327,1.992,0.486,2.993c0.129,0.773,0.248,1.536,0.357,2.309
		c0.069,0.436,0.129,0.872,0.188,1.308c0,0.01,0,0.02,0,0.02C438.691,340.679,438.77,341.61,438.859,342.542z"/>
	<path style="fill:#97BBDE;" d="M439.038,342.542c-0.06,0.01-0.119,0-0.178,0c-0.159,0.01-0.317,0.01-0.476,0
		c-0.624,0-1.239-0.01-1.853-0.04c-0.03,0.01-0.06,0.01-0.089,0c-0.287,0-0.575-0.01-0.862-0.03H435.5
		c-0.783-0.03-1.546-0.069-2.289-0.119c-0.634-1.576-1.278-3.617-2.15-5.886c-2.24-5.867-5.936-13.279-14.578-18.323
		c-1.694-0.991-3.191-2.071-4.489-3.201c-6.957-6.045-8.126-13.438-4.033-15.965c3.726-2.299,9.672,0.803,15.767,7.046
		c0.684,0.703,1.378,1.447,2.071,2.23c1.179,1.338,2.349,2.775,3.508,4.311c2.913,3.865,5.213,8.83,6.788,13.725
		c0.565,1.774,1.04,3.528,1.417,5.223c0.139,0.654,0.446,2.537,0.743,4.598C438.612,338.627,438.968,341.412,439.038,342.542z"/>
	<path style="fill:#2C2A2B;" d="M483.904,324.798c1.049,5.121-1.191,11.301-5.155,12.113c-3.964,0.812-8.15-4.053-9.198-9.174
		c-1.049-5.121,1.314-9.931,5.278-10.742C478.792,316.184,482.855,319.677,483.904,324.798z"/>
	<path style="fill:#C7E3FC;" d="M468.787,298.066c-0.159,0.109-0.327,0.208-0.486,0.317c1.615,3.597,1.635,10.475-5.956,14.904
		c-5.024,2.933-8.642,6.461-11.268,10.069c-3.27,4.489-5.024,9.117-6.105,12.913c-0.723,2.527-1.149,4.687-1.536,6.194
		c-0.466,0.03-0.932,0.04-1.407,0.05c-0.614,0.02-1.239,0.03-1.863,0.03c-0.04-0.099-0.089-0.198-0.129-0.297
		c-0.03-0.079-0.069-0.169-0.099-0.258c-0.614-1.576-1.06-3.667-1.259-5.877c-0.188-2.131-0.139-4.38,0.228-6.392
		c0.912-4.995,2.141-9.959,3.934-14.716c1.576-4.172,3.617-8.136,6.154-11.803c0.396-0.585,0.803-1.159,1.229-1.724
		c1.516-2.031,3.112-4.073,4.836-5.995c2.755-3.102,5.837-5.926,9.414-7.987c2.527-1.457,9.94-5.193,12.338-1.645
		C478.559,288.404,474.961,293.884,468.787,298.066z"/>
	<path style="fill:#2C2A2B;" d="M419.624,320.014c0.908,3.099-2.454,7.692-7.56,9.188s-10.025-0.672-10.933-3.771
		c-0.908-3.099,2.496-6.824,7.603-8.32C413.84,315.616,418.716,316.915,419.624,320.014z"/>
	<path style="fill:#97BBDE;" d="M483.513,331.789c0,0-6.56-17.471-21.108,1.952c-1.724,2.309-3.478,4.232-5.193,5.807
		c-0.297,0.288-0.595,0.555-0.892,0.803c-0.01,0.01-0.02,0.01-0.02,0.01c-1.972,1.05-6.838,1.853-12.863,2.101
		c-0.466,0.03-0.932,0.04-1.407,0.05c-0.614,0.02-1.239,0.03-1.863,0.03c-0.03,0.01-0.059,0.01-0.089,0
		c-0.02-0.099-0.03-0.198-0.04-0.297c-0.02-0.178-0.03-0.367-0.03-0.565c-0.01-1.348,0.386-2.993,1.159-4.836
		c0.089-0.228,0.198-0.476,0.307-0.713c1.08-2.368,2.725-5.014,4.876-7.68c1.378-1.705,2.963-3.429,4.727-5.094
		c0.159-0.149,0.317-0.307,0.486-0.456C465.626,309.918,489.341,312.495,483.513,331.789z"/>
	<path style="fill:#C7E3FC;" d="M436.531,342.502c-0.03,0.01-0.06,0.01-0.089,0c-0.287,0-0.575-0.01-0.862-0.03H435.5
		c-0.783-0.03-1.546-0.069-2.289-0.119c-2.745-0.188-5.173-0.486-7.095-0.872c-1.08-0.971-2.16-2.111-3.181-3.409
		c-1.764-2.249-3.34-4.975-4.46-8.186c-2.616-7.482-6.085-9.127-9.296-9.543c-6.332-0.823-8.195,3.647-8.195,3.647
		s0.03-4.251,5.322-7.214c1.804-1.011,3.696-1.665,5.688-1.833c4.212-0.337,8.889,1.506,14.132,6.957
		c0.882,0.922,1.744,1.942,2.567,3.032c1.278,1.715,2.458,3.587,3.498,5.49c1.07,1.952,1.992,3.934,2.705,5.777
		c0.832,2.16,1.387,4.152,1.576,5.728C436.501,342.125,436.521,342.324,436.531,342.502z"/>
	<g>
		<path style="fill:#275F91;" d="M468.715,305.974c-0.029,0-0.059-0.005-0.088-0.016c-0.129-0.049-0.194-0.192-0.147-0.322
			c0.406-1.086,0.877-4.941-0.468-7.189c-0.558-0.933-1.369-1.477-2.414-1.619c-4.22-0.588-7.47,2.801-7.503,2.835
			c-0.094,0.1-0.252,0.105-0.354,0.01c-0.101-0.095-0.104-0.253-0.01-0.354c0.14-0.146,3.456-3.589,7.935-2.987
			c1.202,0.164,2.136,0.789,2.775,1.858c1.45,2.426,0.95,6.435,0.507,7.622C468.911,305.912,468.816,305.974,468.715,305.974z"/>
	</g>
	<g>
		<path style="fill:#275F91;" d="M446.717,342.515c-0.064,0-0.127-0.024-0.176-0.072c-0.099-0.098-0.099-0.256-0.002-0.354
			c2.529-2.554,4.268-5.822,6.11-9.284c3.016-5.666,6.134-11.526,13.063-14.65c9.288-4.203,14.652-1.089,17.517,2.265
			c0.089,0.104,0.077,0.263-0.028,0.353c-0.104,0.09-0.262,0.078-0.353-0.028c-3.946-4.62-9.804-5.357-16.93-2.134
			c-6.773,3.055-9.851,8.838-12.827,14.431c-1.859,3.494-3.616,6.795-6.196,9.4C446.846,342.49,446.781,342.515,446.717,342.515z"/>
	</g>
	<g>
		<path style="fill:#275F91;" d="M433.845,342.644c-0.082,0-0.162-0.04-0.21-0.114c-2.061-3.2-4.299-7.536-7.727-14.966
			c-5.345-11.612-11.664-12.65-14.974-12.224c-0.023,0.012-0.042,0.006-0.068,0.01c-1.425,0.184-2.375,0.633-2.632,0.766
			c-0.052,0.032-0.099,0.05-0.115,0.056c-0.131,0.044-0.271-0.027-0.316-0.158c-0.044-0.131,0.027-0.272,0.158-0.316
			c0.317-0.167,1.323-0.643,2.815-0.839c0.051-0.016,0.096-0.016,0.128-0.016c3.409-0.435,9.98,0.61,15.459,12.513
			c3.417,7.407,5.646,11.725,7.692,14.903c0.075,0.116,0.041,0.271-0.074,0.346C433.938,342.631,433.892,342.644,433.845,342.644z"
			/>
	</g>
	<g>
		<path style="fill:#275F91;" d="M439.404,342.802c-0.011,0-0.023-0.001-0.034-0.003c-0.137-0.018-0.232-0.145-0.214-0.281
			c0.008-0.052,0.664-5.273-3.327-16.674c-5.777-16.508-17.094-23.94-17.207-24.013c-0.116-0.074-0.15-0.229-0.075-0.345
			c0.075-0.118,0.231-0.15,0.345-0.075c0.115,0.073,11.572,7.589,17.41,24.267c4.039,11.539,3.38,16.695,3.35,16.909
			C439.635,342.711,439.527,342.802,439.404,342.802z"/>
	</g>
</g>
</svg>
