<svg width="100" height="66" viewBox="0 0 100 66" fill="none" xmlns="http://www.w3.org/2000/svg">
<path d="M76.065 18.745C74.685 18.745 73.335 18.8703 72.02 19.0859C68.74 8.33146 58.58 0.5 46.545 0.5C31.85 0.5 19.945 12.172 19.945 26.5664C19.945 27.8499 20.045 29.1134 20.23 30.3568C19.5184 30.2685 18.8021 30.2233 18.085 30.2214C8.095 30.2214 0 38.1532 0 47.945C0 57.7368 8.095 65.6786 18.085 65.6786H40V45.6236H27.5L50 20.5549L72.5 45.6236H60V65.6786H76.065C89.28 65.6786 100 55.1698 100 42.2143C100 29.2488 89.28 18.745 76.065 18.745Z" fill="#E0E0E0"/>
</svg>
